<svg width="800" height="800" viewBox="0 0 800 800" fill="none" xmlns="http://www.w3.org/2000/svg">
<g clip-path="url(#clip0_304_750)">
<path d="M800 400C800 620.914 620.914 800 400 800C179.086 800 0 620.914 0 400C0 179.086 179.086 0 400 0C620.914 0 800 179.086 800 400Z" fill="#54C0EB"/>
<path d="M400.839 79.0025C392.926 79.9496 146.284 245.214 144.863 250.234C143.441 255.301 142.872 307.958 142.872 307.958L174.668 318.044L174.81 359.905L191.822 394.71V541.838L179.122 569.54L144.294 579.816V604.724L117 613.011C117 613.011 117.379 634.368 117.379 637.919C117.379 641.471 118.564 649 132.827 649C147.09 649 667.667 646.585 672.927 646.585C678.187 646.585 683.636 645.543 683.92 636.12C684.205 626.696 683.636 613.39 683.636 613.39L657.195 600.32L657.1 579.437L614.074 566.178L603.697 536.819L603.839 398.498L620.329 363.741L625.305 354.317V316.908L653.025 306.443C653.025 306.443 653.546 252.317 652.741 250.755C652.03 249.239 407.378 78.2448 400.839 79.0025Z" fill="#CDDFEE"/>
<path d="M167.335 261.314C165.867 264.972 165.488 291.957 166.814 293.288C168.141 294.618 625.979 293.905 627.542 292.622C629.105 291.34 629.342 262.026 628.584 260.221C627.826 258.416 498.754 170 498.754 170L299.202 170.998C299.154 170.998 168.188 259.128 167.335 261.314Z" fill="#94ADBC"/>
<path d="M117.19 613.629C116.763 612.608 117.19 607.782 117.19 605.834C117.19 603.885 119.085 601.658 123.351 601.658C127.616 601.658 669.03 600.915 671.684 601.008C678.367 601.24 682.869 602.632 683.532 606.808C684.196 610.984 683.959 614 683.959 614L117.19 613.629Z" fill="#94ADBC"/>
<path d="M657.48 579.639L145 580C145 580 145.189 574.99 145.189 573.274C145.189 571.559 146.137 568.76 152.245 568.76C158.354 568.76 644.363 567 648.53 567C652.697 567 657.244 568.851 657.812 571.604C658.38 574.358 657.48 579.639 657.48 579.639Z" fill="#94ADBC"/>
<path d="M608 547.851L604.208 537.092L192.081 537L189 549L608 547.851Z" fill="#94ADBC"/>
<path d="M187 385L610 386.426L603.934 398.482L191.881 400L187 385Z" fill="#94ADBC"/>
<path d="M177.497 367C177.497 367 173.753 364.485 173.137 361.176C172.521 357.868 174.18 355.926 174.18 355.926L625.166 355C625.166 355 626.872 358.265 625.403 360.559C623.934 362.897 619.764 365.015 619.764 365.015L177.497 367Z" fill="#94ADBC"/>
<path d="M143 308.502L652.853 307C652.853 307 653.184 311.834 652.853 313.852C652.569 315.87 649.917 317.653 643.145 317.653H636.374C636.374 317.653 159.1 320 153.797 320C148.493 320 144.705 317.09 143.805 314.744C143.284 313.195 143 308.502 143 308.502Z" fill="#94ADBC"/>
<path d="M180 274.576L287.768 202L295 276L180 274.576Z" fill="#657582"/>
<path d="M509.881 199L617 275H507L509.881 199Z" fill="#657582"/>
<path d="M252.632 367.047L270.226 367L284 400.216L282.726 536.964L271.264 567.953L250.792 568L239.519 537.153L239 399.931L252.632 367.047Z" fill="#54636E"/>
<path d="M347.557 366.522L330 399.461L331.325 537.197L341.736 568L456.4 567.525L466.716 537.197L467 399.176L453.608 366L347.557 366.522Z" fill="#54636E"/>
<path d="M527.378 366.095L543.097 366L557 399.153L556.952 537.063L548.878 566.953L522.648 567L514.621 537.063L514 399.295L527.378 366.095Z" fill="#54636E"/>
<path d="M353 568V462L445.81 462.905L446 567.714L353 568Z" fill="#6BA4AE"/>
<path d="M394.049 457L394 568L404 567.952V458.625L394.049 457Z" fill="#A5D0D7"/>
<path d="M353 467V441H446V467C446 467 353.81 466.208 353 467Z" fill="#95ACBC"/>
<path d="M353.007 441H445.997C445.997 441 446.379 432.268 437.756 431.415C429.133 430.562 365.774 431.264 360.439 431.415C352.483 431.666 353.007 441 353.007 441Z" fill="#CCDEED"/>
<path d="M399.78 114.003C331.109 114.428 276.749 168.524 279.072 236.922C281.394 305.321 344.378 353.422 399.78 352.997C457.931 352.572 519.162 311.127 521.91 236.545C524.706 162.009 461.675 113.578 399.78 114.003Z" fill="#CDDFEE"/>
<path d="M400.592 130.002C343.121 130.38 297.117 177.421 299.059 237.084C300.954 296.748 351.555 334.57 397.938 334.995C451.429 335.468 500.655 300.578 502.929 235.572C505.203 170.566 452.376 129.671 400.592 130.002Z" fill="#94ADBC"/>
<path d="M383.873 163.403C383.873 163.403 382.832 145.125 384.109 143.563C385.386 142 390.589 142 400.663 142C410.785 142 414.9 142 416.46 143.278C418.021 144.557 417.217 164.539 417.217 164.539C417.217 164.539 430.933 169.701 439.494 176.33C448.575 183.338 455.055 192.666 454.534 194.229C454.014 195.792 435.899 211.607 433.298 211.086C430.697 210.565 415.94 193.282 398.346 192.146C370.393 190.346 370.63 212.128 387.988 218.094C405.346 224.061 460.068 228.796 457.94 272.407C456.142 309.105 419.109 311.709 419.109 311.709C419.109 311.709 420.15 325.441 419.109 326.246C418.068 327.051 385.434 327.525 384.393 326.009C383.353 324.494 384.157 310.431 384.157 310.431C384.157 310.431 369.637 307.589 357.718 299.54C345.799 291.49 337.238 280.883 337.002 279.557C336.765 278.279 358.002 260.38 359.515 259.859C361.029 259.338 382.643 280.646 403.028 282.398C423.744 284.198 432.541 263.742 403.785 254.934C375.029 246.127 341.117 238.598 342.678 202.563C344.238 165.96 383.873 163.403 383.873 163.403Z" fill="#024FAC"/>
</g>
<defs>
<clipPath id="clip0_304_750">
<rect width="800" height="800" fill="white"/>
</clipPath>
</defs>
</svg>
