<svg width="800" height="800" viewBox="0 0 800 800" fill="none" xmlns="http://www.w3.org/2000/svg">
<g clip-path="url(#clip0_301_524)">
<path d="M800 400C800 620.914 620.914 800 400 800C179.086 800 0 620.914 0 400C0 179.086 179.086 0 400 0C620.914 0 800 179.086 800 400Z" fill="#54C0EB"/>
<path d="M619.139 253.62L482.517 117H180V683H619.139V253.62Z" fill="#F8EDCD"/>
<path d="M482.517 117V253.62H619.139L482.517 117Z" fill="#D1C6A7"/>
<path d="M511.794 634.207H277.587C272.2 634.207 267.828 629.835 267.828 624.448C267.828 619.061 272.2 614.688 277.587 614.688H511.794C517.18 614.688 521.553 619.061 521.553 624.448C521.553 629.835 517.18 634.207 511.794 634.207Z" fill="#D1C6A7"/>
<path d="M482.517 595.173H297.104C291.717 595.173 287.345 590.801 287.345 585.414C287.345 580.027 291.717 575.655 297.104 575.655H482.517C487.904 575.655 492.277 580.027 492.277 585.414C492.277 590.801 487.904 595.173 482.517 595.173Z" fill="#D1C6A7"/>
<path d="M394.69 526.863C389.303 526.863 384.931 522.491 384.931 517.104V282.897C384.931 277.51 389.303 273.138 394.69 273.138C400.077 273.138 404.449 277.51 404.449 282.897V517.104C404.449 522.491 400.077 526.863 394.69 526.863Z" fill="#13A085"/>
<path d="M394.69 507.345C370.586 507.345 350.015 498.893 338.266 484.158C334.908 479.942 335.592 473.795 339.808 470.437C344.014 467.08 350.172 467.763 353.519 471.979C361.433 481.904 376.822 487.827 394.691 487.827C418.16 487.827 443.484 472.907 443.484 448.793C443.484 425.441 418.259 409.759 394.691 409.759C361.834 409.759 326.381 387.374 326.381 351.207C326.381 315.041 361.834 292.655 394.691 292.655C419.156 292.655 439.191 300.891 451.115 315.841C454.473 320.057 453.789 326.205 449.573 329.562C445.357 332.919 439.219 332.236 435.862 328.02C427.714 317.803 413.095 312.172 394.69 312.172C371.122 312.172 345.897 327.854 345.897 351.206C345.897 375.32 371.221 390.24 394.69 390.24C427.547 390.24 463 412.627 463 448.792C463 484.958 427.548 507.345 394.69 507.345Z" fill="#13A085"/>
<path d="M443.483 360.966C438.096 360.966 433.724 356.594 433.724 351.207V292.655C433.724 287.268 438.096 282.896 443.483 282.896C448.87 282.896 453.242 287.268 453.242 292.655V351.207C453.242 356.594 448.87 360.966 443.483 360.966Z" fill="#13A085"/>
<path d="M345.897 517.104C340.51 517.104 336.138 512.731 336.138 507.345V448.792C336.138 443.405 340.51 439.033 345.897 439.033C351.284 439.033 355.656 443.405 355.656 448.792V507.345C355.656 512.731 351.284 517.104 345.897 517.104Z" fill="#13A085"/>
</g>
<defs>
<clipPath id="clip0_301_524">
<rect width="800" height="800" fill="white"/>
</clipPath>
</defs>
</svg>
