<svg width="800" height="800" viewBox="0 0 800 800" fill="none" xmlns="http://www.w3.org/2000/svg">
<g clip-path="url(#clip0_302_537)">
<path d="M800 400C800 620.914 620.914 800 400 800C179.086 800 0 620.914 0 400C0 179.086 179.086 0 400 0C620.914 0 800 179.086 800 400Z" fill="#54C0EB"/>
<path d="M168 117C168 105.954 176.954 97 188 97H611C622.046 97 631 105.954 631 117V551.155C631 556.495 628.864 561.614 625.068 565.37L491.845 697.215C488.1 700.921 483.045 703 477.777 703H188C176.954 703 168 694.046 168 683V117Z" fill="white"/>
<path d="M298.619 251.812C300.326 251.812 297.816 251.01 298.619 251.812Z" fill="#194F82"/>
<path d="M295.205 284.642C296.109 285.545 293.599 284.642 295.205 284.642Z" fill="#194F82"/>
<path d="M498 645.998L574 569.998H498V645.998Z" fill="#56ACE0"/>
<path d="M481.298 536.471H564V163.998H235V635.998H464.395V553.361C464.496 544.111 472.041 536.471 481.298 536.471Z" fill="#FFC10D"/>
<path d="M295.205 323.396C284.262 323.396 275.828 314.963 275.828 304.019C275.828 294.783 268.299 287.151 258.961 287.151C249.622 287.151 242.093 294.68 242.093 304.019C242.093 327.612 257.254 346.989 278.237 354.518V366.265C278.237 375.501 285.766 383.132 295.104 383.132C304.441 383.132 311.971 375.603 311.971 366.265V354.518C333.055 347.792 348.115 327.612 348.115 304.019C348.115 276.209 326.228 253.519 299.322 251.01C284.966 251.812 276.632 241.774 276.632 231.633C276.632 220.69 285.065 212.256 296.009 212.256C306.952 212.256 315.386 220.688 315.386 231.633C315.386 240.868 322.915 248.5 332.254 248.5C341.489 248.5 349.121 240.971 349.121 231.633C349.121 208.039 333.96 188.662 312.978 181.133V170.191C312.978 160.955 305.449 153.323 296.11 153.323C286.774 153.323 279.243 160.852 279.243 170.191V181.938C258.159 188.664 243.1 208.844 243.1 232.437C243.1 260.247 264.183 283.739 296.109 285.446C307.051 285.446 315.486 293.879 315.486 304.823C314.582 314.961 306.147 323.396 295.205 323.396Z" fill="#194F82"/>
<path d="M614.266 97H184.969C175.733 97 168.102 104.529 168.102 113.867V686.131C168.102 695.366 175.631 702.998 184.969 702.998H481.241C485.457 702.998 489.674 701.291 492.988 697.979L626.015 564.952C629.428 561.538 631.034 557.423 631.034 553.205V113.867C631.033 104.529 623.504 97 614.266 97ZM498.108 645.771V569.971H573.908L498.108 645.771ZM597.4 536.338H481.241C472.005 536.338 464.374 543.867 464.374 553.205V669.364H201.836V130.634H597.4V536.338Z" fill="#194F82"/>
<path d="M399.617 200.51H547.803C557.039 200.51 564.67 192.981 564.67 183.643C564.67 174.304 557.141 166.775 547.803 166.775H399.617C390.382 166.775 382.75 174.304 382.75 183.643C382.75 192.981 390.382 200.51 399.617 200.51Z" fill="#194F82"/>
<path d="M399.617 287.252H547.803C557.039 287.252 564.67 279.723 564.67 270.385C564.67 261.047 557.141 253.518 547.803 253.518H399.617C390.382 253.518 382.75 261.047 382.75 270.385C382.75 279.723 390.382 287.252 399.617 287.252Z" fill="#194F82"/>
<path d="M399.617 373.895H547.803C557.039 373.895 564.67 366.366 564.67 357.028C564.67 347.69 557.141 340.161 547.803 340.161H399.617C390.382 340.161 382.75 347.69 382.75 357.028C382.75 366.366 390.382 373.895 399.617 373.895Z" fill="#194F82"/>
<path d="M246.413 459.735H547.704C556.94 459.735 564.572 452.206 564.572 442.868C564.572 433.632 557.042 426 547.704 426H246.413C237.177 426 229.545 433.53 229.545 442.868C229.646 452.205 237.175 459.735 246.413 459.735Z" fill="#194F82"/>
<path d="M246.413 546.477H394.598C403.834 546.477 411.466 538.948 411.466 529.61C411.466 520.374 403.937 512.743 394.598 512.743H246.413C237.177 512.743 229.545 520.272 229.545 529.61C229.646 538.847 237.175 546.477 246.413 546.477Z" fill="#194F82"/>
<path d="M246.413 633.12H394.598C403.834 633.12 411.466 625.591 411.466 616.253C411.466 607.017 403.937 599.385 394.598 599.385H246.413C237.177 599.385 229.545 606.914 229.545 616.253C229.646 625.591 237.175 633.12 246.413 633.12Z" fill="#194F82"/>
</g>
<defs>
<clipPath id="clip0_302_537">
<rect width="800" height="800" fill="white"/>
</clipPath>
</defs>
</svg>
