<svg width="800" height="800" viewBox="0 0 800 800" fill="none" xmlns="http://www.w3.org/2000/svg">
<g clip-path="url(#clip0_304_711)">
<path d="M800 400C800 620.914 620.914 800 400 800C179.086 800 0 620.914 0 400C0 179.086 179.086 0 400 0C620.914 0 800 179.086 800 400Z" fill="#54C0EB"/>
<path d="M612 261H446V428H612V261ZM521.622 419.219C513.406 419.219 505.271 417.591 497.68 414.426C490.09 411.262 483.193 406.623 477.383 400.776C471.574 394.929 466.965 387.988 463.821 380.348C460.677 372.708 459.059 364.52 459.059 356.251C459.059 347.982 460.677 339.794 463.821 332.154C466.965 324.514 471.574 317.573 477.383 311.725C483.193 305.878 490.09 301.24 497.68 298.076C505.271 294.911 513.406 293.282 521.622 293.282C524.068 293.282 526.414 294.26 528.143 296.001C529.873 297.742 530.844 300.103 530.844 302.564V346.969H574.964C577.409 346.969 579.755 347.947 581.485 349.688C583.214 351.428 584.186 353.789 584.186 356.251C584.178 372.949 577.585 388.961 565.853 400.768C554.122 412.575 538.213 419.212 521.622 419.219ZM601.634 340.147H548.367C545.921 340.147 543.575 339.169 541.846 337.428C540.116 335.687 539.144 333.327 539.144 330.865V277.178C539.144 274.717 540.116 272.356 541.846 270.615C543.575 268.874 545.921 267.896 548.367 267.896C564.957 267.904 580.866 274.54 592.598 286.348C604.329 298.155 610.923 314.167 610.93 330.865C610.93 332.087 610.69 333.297 610.225 334.426C609.759 335.554 609.076 336.579 608.216 337.441C607.356 338.304 606.335 338.987 605.212 339.451C604.088 339.915 602.885 340.152 601.671 340.147H601.634Z" fill="#D8D8FC"/>
<path d="M408.76 595.425C408.76 597.882 407.782 600.238 406.042 601.975C404.302 603.712 401.942 604.688 399.481 604.688H279V651H650V225H408.76V595.425ZM427.317 252.713C427.317 250.257 428.294 247.901 430.034 246.164C431.774 244.427 434.134 243.451 436.595 243.451H622.165C624.625 243.451 626.985 244.427 628.725 246.164C630.466 247.901 631.443 250.257 631.443 252.713V437.889C631.443 440.345 630.466 442.701 628.725 444.438C626.985 446.175 624.625 447.151 622.165 447.151H436.595C434.134 447.151 431.774 446.175 430.034 444.438C428.294 442.701 427.317 440.345 427.317 437.889V252.713ZM427.317 475.013C427.317 472.556 428.294 470.2 430.034 468.463C431.774 466.726 434.134 465.75 436.595 465.75H622.165C624.625 465.75 626.985 466.726 628.725 468.463C630.466 470.2 631.443 472.556 631.443 475.013V512.063C631.443 514.519 630.466 516.875 628.725 518.612C626.985 520.349 624.625 521.325 622.165 521.325H436.595C434.134 521.325 431.774 520.349 430.034 518.612C428.294 516.875 427.317 514.519 427.317 512.063V475.013ZM436.595 539.924H622.165C624.625 539.924 626.985 540.9 628.725 542.637C630.466 544.374 631.443 546.73 631.443 549.187C631.443 551.643 630.466 553.999 628.725 555.736C626.985 557.473 624.625 558.449 622.165 558.449H436.595C434.134 558.449 431.774 557.473 430.034 555.736C428.294 553.999 427.317 551.643 427.317 549.187C427.317 546.73 428.294 544.374 430.034 542.637C431.774 540.9 434.134 539.924 436.595 539.924ZM436.595 576.974H622.165C624.625 576.974 626.985 577.95 628.725 579.687C630.466 581.424 631.443 583.78 631.443 586.237C631.443 588.693 630.466 591.049 628.725 592.786C626.985 594.523 624.625 595.499 622.165 595.499H436.595C434.134 595.499 431.774 594.523 430.034 592.786C428.294 591.049 427.317 588.693 427.317 586.237C427.317 583.78 428.294 581.424 430.034 579.687C431.774 577.95 434.134 576.974 436.595 576.974ZM436.595 614.024H622.165C624.625 614.024 626.985 615 628.725 616.737C630.466 618.474 631.443 620.83 631.443 623.287C631.443 625.743 630.466 628.099 628.725 629.836C626.985 631.573 624.625 632.549 622.165 632.549H436.595C434.134 632.549 431.774 631.573 430.034 629.836C428.294 628.099 427.317 625.743 427.317 623.287C427.317 620.83 428.294 618.474 430.034 616.737C431.774 615 434.134 614.024 436.595 614.024Z" fill="#D8D8FC"/>
<path d="M437.227 447H621.773C624.22 447 626.567 446.023 628.297 444.283C630.028 442.543 631 440.184 631 437.724V252.276C631 249.816 630.028 247.457 628.297 245.717C626.567 243.977 624.22 243 621.773 243H437.227C434.78 243 432.433 243.977 430.703 245.717C428.972 247.457 428 249.816 428 252.276V437.724C428 440.184 428.972 442.543 430.703 444.283C432.433 446.023 434.78 447 437.227 447ZM446.455 261.552H612.545V428.448H446.455V261.552Z" fill="black"/>
<path d="M612 484H446V502H612V484Z" fill="#F03800"/>
<path d="M437.227 521H621.773C624.22 521 626.567 520.017 628.297 518.266C630.028 516.516 631 514.142 631 511.667V474.333C631 471.858 630.028 469.484 628.297 467.734C626.567 465.983 624.22 465 621.773 465H437.227C434.78 465 432.433 465.983 430.703 467.734C428.972 469.484 428 471.858 428 474.333V511.667C428 514.142 428.972 516.516 430.703 518.266C432.433 520.017 434.78 521 437.227 521ZM446.455 483.667H612.545V502.333H446.455V483.667Z" fill="black"/>
<path d="M437.227 558H621.773C624.22 558 626.567 557.052 628.297 555.364C630.028 553.676 631 551.387 631 549C631 546.613 630.028 544.324 628.297 542.636C626.567 540.948 624.22 540 621.773 540H437.227C434.78 540 432.433 540.948 430.703 542.636C428.972 544.324 428 546.613 428 549C428 551.387 428.972 553.676 430.703 555.364C432.433 557.052 434.78 558 437.227 558Z" fill="black"/>
<path d="M437.227 595H621.773C624.22 595 626.567 593.999 628.297 592.218C630.028 590.436 631 588.02 631 585.5C631 582.98 630.028 580.564 628.297 578.782C626.567 577.001 624.22 576 621.773 576H437.227C434.78 576 432.433 577.001 430.703 578.782C428.972 580.564 428 582.98 428 585.5C428 588.02 428.972 590.436 430.703 592.218C432.433 593.999 434.78 595 437.227 595Z" fill="black"/>
<path d="M437.227 632H621.773C624.22 632 626.567 630.999 628.297 629.218C630.028 627.436 631 625.02 631 622.5C631 619.98 630.028 617.564 628.297 615.782C626.567 614.001 624.22 613 621.773 613H437.227C434.78 613 432.433 614.001 430.703 615.782C428.972 617.564 428 619.98 428 622.5C428 625.02 428.972 627.436 430.703 629.218C432.433 630.999 434.78 632 437.227 632Z" fill="black"/>
<path d="M390 586V150H149V586H390ZM371.508 549.042C371.508 551.502 370.531 553.862 368.793 555.602C367.055 557.341 364.697 558.319 362.239 558.319H325.162C322.703 558.319 320.346 557.341 318.607 555.602C316.869 553.862 315.892 551.502 315.892 549.042V437.723C315.892 435.263 316.869 432.903 318.607 431.163C320.346 429.424 322.703 428.446 325.162 428.446H362.239C364.697 428.446 367.055 429.424 368.793 431.163C370.531 432.903 371.508 435.263 371.508 437.723V549.042ZM251.101 428.446H288.177C290.636 428.446 292.994 429.424 294.732 431.163C296.47 432.903 297.447 435.263 297.447 437.723V474.829C297.447 477.29 296.47 479.649 294.732 481.389C292.994 483.129 290.636 484.106 288.177 484.106H251.101C248.642 484.106 246.285 483.129 244.546 481.389C242.808 479.649 241.831 477.29 241.831 474.829V437.723C241.831 435.263 242.808 432.903 244.546 431.163C246.285 429.424 248.642 428.446 251.101 428.446ZM241.831 400.542V363.436C241.831 360.976 242.808 358.616 244.546 356.876C246.285 355.137 248.642 354.159 251.101 354.159H288.177C290.636 354.159 292.994 355.137 294.732 356.876C296.47 358.616 297.447 360.976 297.447 363.436V400.542C297.447 403.003 296.47 405.362 294.732 407.102C292.994 408.842 290.636 409.819 288.177 409.819H251.101C248.642 409.819 246.285 408.842 244.546 407.102C242.808 405.362 241.831 403.003 241.831 400.542ZM371.508 400.542C371.508 403.003 370.531 405.362 368.793 407.102C367.055 408.842 364.697 409.819 362.239 409.819H325.162C322.703 409.819 320.346 408.842 318.607 407.102C316.869 405.362 315.892 403.003 315.892 400.542V363.436C315.892 360.976 316.869 358.616 318.607 356.876C320.346 355.137 322.703 354.159 325.162 354.159H362.239C364.697 354.159 367.055 355.137 368.793 356.876C370.531 358.616 371.508 360.976 371.508 363.436V400.542ZM371.369 326.255C371.369 328.716 370.392 331.075 368.654 332.815C366.916 334.555 364.558 335.532 362.1 335.532H325.023C322.564 335.532 320.207 334.555 318.468 332.815C316.73 331.075 315.753 328.716 315.753 326.255V289.149C315.753 286.689 316.73 284.329 318.468 282.589C320.207 280.85 322.564 279.872 325.023 279.872H362.1C364.558 279.872 366.916 280.85 368.654 282.589C370.392 284.329 371.369 286.689 371.369 289.149V326.255ZM167.538 177.83C167.538 175.369 168.515 173.01 170.253 171.27C171.992 169.531 174.349 168.553 176.808 168.553H362.192C364.651 168.553 367.008 169.531 368.747 171.27C370.485 173.01 371.462 175.369 371.462 177.83V252.043C371.462 254.503 370.485 256.862 368.747 258.602C367.008 260.342 364.651 261.319 362.192 261.319H176.808C174.349 261.319 171.992 260.342 170.253 258.602C168.515 256.862 167.538 254.503 167.538 252.043V177.83ZM167.538 289.149C167.538 286.689 168.515 284.329 170.253 282.589C171.992 280.85 174.349 279.872 176.808 279.872H213.885C216.343 279.872 218.701 280.85 220.439 282.589C222.177 284.329 223.154 286.689 223.154 289.149V326.255C223.154 328.716 222.177 331.075 220.439 332.815C218.701 334.555 216.343 335.532 213.885 335.532H176.808C174.349 335.532 171.992 334.555 170.253 332.815C168.515 331.075 167.538 328.716 167.538 326.255V289.149ZM223.293 548.968C223.293 551.428 222.316 553.788 220.578 555.527C218.84 557.267 216.482 558.244 214.024 558.244H176.947C174.488 558.244 172.131 557.267 170.392 555.527C168.654 553.788 167.677 551.428 167.677 548.968V511.861C167.677 509.401 168.654 507.042 170.392 505.302C172.131 503.562 174.488 502.585 176.947 502.585H214.024C216.482 502.585 218.84 503.562 220.578 505.302C222.316 507.042 223.293 509.401 223.293 511.861V548.968ZM223.293 474.829C223.293 477.29 222.316 479.649 220.578 481.389C218.84 483.129 216.482 484.106 214.024 484.106H176.947C174.488 484.106 172.131 483.129 170.392 481.389C168.654 479.649 167.677 477.29 167.677 474.829V437.723C167.677 435.263 168.654 432.903 170.392 431.163C172.131 429.424 174.488 428.446 176.947 428.446H214.024C216.482 428.446 218.84 429.424 220.578 431.163C222.316 432.903 223.293 435.263 223.293 437.723V474.829ZM223.293 400.542C223.293 403.003 222.316 405.362 220.578 407.102C218.84 408.842 216.482 409.819 214.024 409.819H176.947C174.488 409.819 172.131 408.842 170.392 407.102C168.654 405.362 167.677 403.003 167.677 400.542V363.436C167.677 360.976 168.654 358.616 170.392 356.876C172.131 355.137 174.488 354.159 176.947 354.159H214.024C216.482 354.159 218.84 355.137 220.578 356.876C222.316 358.616 223.293 360.976 223.293 363.436V400.542ZM241.692 289.149C241.692 286.689 242.669 284.329 244.407 282.589C246.146 280.85 248.503 279.872 250.962 279.872H288.038C290.497 279.872 292.854 280.85 294.593 282.589C296.331 284.329 297.308 286.689 297.308 289.149V326.255C297.308 328.716 296.331 331.075 294.593 332.815C292.854 334.555 290.497 335.532 288.038 335.532H250.962C248.503 335.532 246.146 334.555 244.407 332.815C242.669 331.075 241.692 328.716 241.692 326.255V289.149ZM241.831 548.968V511.861C241.831 509.401 242.808 507.042 244.546 505.302C246.285 503.562 248.642 502.585 251.101 502.585H288.177C290.636 502.585 292.994 503.562 294.732 505.302C296.47 507.042 297.447 509.401 297.447 511.861V548.968C297.447 551.428 296.47 553.788 294.732 555.527C292.994 557.267 290.636 558.244 288.177 558.244H251.101C248.642 558.244 246.285 557.267 244.546 555.527C242.808 553.788 241.831 551.428 241.831 548.968Z" fill="#F2F2FC"/>
<path d="M658.741 206.143H408.759V141.259C408.759 138.803 407.783 136.448 406.047 134.712C404.31 132.975 401.956 132 399.5 132H140.259C137.803 132 135.448 132.975 133.712 134.712C131.975 136.448 131 138.803 131 141.259V594.931C131 597.387 131.975 599.742 133.712 601.478C135.448 603.214 137.803 604.19 140.259 604.19H260.76V659.741C260.76 662.197 261.735 664.552 263.471 666.288C265.208 668.025 267.563 669 270.018 669H658.741C661.197 669 663.552 668.025 665.288 666.288C667.025 664.552 668 662.197 668 659.741V215.402C668 212.946 667.025 210.591 665.288 208.855C663.552 207.118 661.197 206.143 658.741 206.143ZM149.517 150.517H390.241V585.672H149.517V150.517ZM649.483 650.483H279.277V604.19H399.5C401.956 604.19 404.31 603.214 406.047 601.478C407.783 599.742 408.759 597.387 408.759 594.931V224.66H649.483V650.483Z" fill="black"/>
<path d="M353 188H187V243H353V188Z" fill="#4BB9EC"/>
<path d="M177.227 261H361.773C364.22 261 366.567 260.031 368.297 258.305C370.028 256.58 371 254.24 371 251.8V178.2C371 175.76 370.028 173.42 368.297 171.695C366.567 169.969 364.22 169 361.773 169H177.227C174.78 169 172.433 169.969 170.703 171.695C168.972 173.42 168 175.76 168 178.2V251.8C168 254.24 168.972 256.58 170.703 258.305C172.433 260.031 174.78 261 177.227 261ZM186.455 187.4H352.545V242.6H186.455V187.4Z" fill="black"/>
<path d="M205 299H187V317H205V299Z" fill="#FDBF00"/>
<path d="M177.333 336H214.667C217.142 336 219.516 335.017 221.266 333.266C223.017 331.516 224 329.142 224 326.667V289.333C224 286.858 223.017 284.484 221.266 282.734C219.516 280.983 217.142 280 214.667 280H177.333C174.858 280 172.484 280.983 170.734 282.734C168.983 284.484 168 286.858 168 289.333V326.667C168 329.142 168.983 331.516 170.734 333.266C172.484 335.017 174.858 336 177.333 336ZM186.667 298.667H205.333V317.333H186.667V298.667Z" fill="black"/>
<path d="M206 373H187V391H206V373Z" fill="#FDBF00"/>
<path d="M214.667 354H177.333C174.858 354 172.484 354.983 170.734 356.734C168.983 358.484 168 360.858 168 363.333V400.667C168 403.142 168.983 405.516 170.734 407.266C172.484 409.017 174.858 410 177.333 410H214.667C217.142 410 219.516 409.017 221.266 407.266C223.017 405.516 224 403.142 224 400.667V363.333C224 360.858 223.017 358.484 221.266 356.734C219.516 354.983 217.142 354 214.667 354ZM205.333 391.333H186.667V372.667H205.333V391.333Z" fill="black"/>
<path d="M206 447H187V465H206V447Z" fill="#FDBF00"/>
<path d="M214.667 429H177.333C174.858 429 172.484 429.966 170.734 431.685C168.983 433.404 168 435.736 168 438.167V474.833C168 477.264 168.983 479.596 170.734 481.315C172.484 483.034 174.858 484 177.333 484H214.667C217.142 484 219.516 483.034 221.266 481.315C223.017 479.596 224 477.264 224 474.833V438.167C224 435.736 223.017 433.404 221.266 431.685C219.516 429.966 217.142 429 214.667 429ZM205.333 465.667H186.667V447.333H205.333V465.667Z" fill="black"/>
<path d="M206 521H187V540H206V521Z" fill="#FDBF00"/>
<path d="M214.667 502H177.333C174.858 502 172.484 502.983 170.734 504.734C168.983 506.484 168 508.858 168 511.333V548.667C168 551.142 168.983 553.516 170.734 555.266C172.484 557.017 174.858 558 177.333 558H214.667C217.142 558 219.516 557.017 221.266 555.266C223.017 553.516 224 551.142 224 548.667V511.333C224 508.858 223.017 506.484 221.266 504.734C219.516 502.983 217.142 502 214.667 502ZM205.333 539.333H186.667V520.667H205.333V539.333Z" fill="black"/>
<path d="M279 299H260V317H279V299Z" fill="#FDBF00"/>
<path d="M251.333 336H288.667C291.142 336 293.516 335.017 295.266 333.266C297.017 331.516 298 329.142 298 326.667V289.333C298 286.858 297.017 284.484 295.266 282.734C293.516 280.983 291.142 280 288.667 280H251.333C248.858 280 246.484 280.983 244.734 282.734C242.983 284.484 242 286.858 242 289.333V326.667C242 329.142 242.983 331.516 244.734 333.266C246.484 335.017 248.858 336 251.333 336ZM260.667 298.667H279.333V317.333H260.667V298.667Z" fill="black"/>
<path d="M279 373H261V391H279V373Z" fill="#FDBF00"/>
<path d="M251.333 410H288.667C291.142 410 293.516 409.017 295.266 407.266C297.017 405.516 298 403.142 298 400.667V363.333C298 360.858 297.017 358.484 295.266 356.734C293.516 354.983 291.142 354 288.667 354H251.333C248.858 354 246.484 354.983 244.734 356.734C242.983 358.484 242 360.858 242 363.333V400.667C242 403.142 242.983 405.516 244.734 407.266C246.484 409.017 248.858 410 251.333 410ZM260.667 372.667H279.333V391.333H260.667V372.667Z" fill="black"/>
<path d="M279 447H261V465H279V447Z" fill="#FDBF00"/>
<path d="M242 474.833C242 477.264 242.983 479.596 244.734 481.315C246.484 483.034 248.858 484 251.333 484H288.667C291.142 484 293.516 483.034 295.266 481.315C297.017 479.596 298 477.264 298 474.833V438.167C298 435.736 297.017 433.404 295.266 431.685C293.516 429.966 291.142 429 288.667 429H251.333C248.858 429 246.484 429.966 244.734 431.685C242.983 433.404 242 435.736 242 438.167V474.833ZM260.667 447.333H279.333V465.667H260.667V447.333Z" fill="black"/>
<path d="M279 521H261V540H279V521Z" fill="#FDBF00"/>
<path d="M288.667 558C291.142 558 293.516 557.017 295.266 555.266C297.017 553.516 298 551.142 298 548.667V511.333C298 508.858 297.017 506.484 295.266 504.734C293.516 502.983 291.142 502 288.667 502H251.333C248.858 502 246.484 502.983 244.734 504.734C242.983 506.484 242 508.858 242 511.333V548.667C242 551.142 242.983 553.516 244.734 555.266C246.484 557.017 248.858 558 251.333 558H288.667ZM260.667 520.667H279.333V539.333H260.667V520.667Z" fill="black"/>
<path d="M353 299H335V317H353V299Z" fill="#FDBF00"/>
<path d="M361.833 280H325.167C322.736 280 320.404 280.983 318.685 282.734C316.966 284.484 316 286.858 316 289.333V326.667C316 329.142 316.966 331.516 318.685 333.266C320.404 335.017 322.736 336 325.167 336H361.833C364.264 336 366.596 335.017 368.315 333.266C370.034 331.516 371 329.142 371 326.667V289.333C371 286.858 370.034 284.484 368.315 282.734C366.596 280.983 364.264 280 361.833 280ZM352.667 317.333H334.333V298.667H352.667V317.333Z" fill="black"/>
<path d="M353 373H335V391H353V373Z" fill="#FDBF00"/>
<path d="M362.667 354H325.333C322.858 354 320.484 354.983 318.734 356.734C316.983 358.484 316 360.858 316 363.333V400.667C316 403.142 316.983 405.516 318.734 407.266C320.484 409.017 322.858 410 325.333 410H362.667C365.142 410 367.516 409.017 369.266 407.266C371.017 405.516 372 403.142 372 400.667V363.333C372 360.858 371.017 358.484 369.266 356.734C367.516 354.983 365.142 354 362.667 354ZM353.333 391.333H334.667V372.667H353.333V391.333Z" fill="black"/>
<path d="M353 447H335V540H353V447Z" fill="#F03800"/>
<path d="M362.667 429H325.333C322.858 429 320.484 429.971 318.734 431.699C316.983 433.427 316 435.771 316 438.214V548.786C316 551.229 316.983 553.573 318.734 555.301C320.484 557.029 322.858 558 325.333 558H362.667C365.142 558 367.516 557.029 369.266 555.301C371.017 553.573 372 551.229 372 548.786V438.214C372 435.771 371.017 433.427 369.266 431.699C367.516 429.971 365.142 429 362.667 429ZM353.333 539.571H334.667V447.429H353.333V539.571Z" fill="black"/>
<path d="M521.979 365.816C519.54 365.816 517.202 364.836 515.477 363.092C513.753 361.348 512.784 358.982 512.784 356.516V313C505.048 314.674 497.901 318.428 492.096 323.866C486.292 329.304 482.045 336.225 479.803 343.9C477.561 351.574 477.407 359.718 479.357 367.474C481.307 375.23 485.289 382.31 490.883 387.969C496.478 393.627 503.477 397.655 511.145 399.627C518.813 401.6 526.864 401.444 534.452 399.176C542.039 396.908 548.881 392.613 554.257 386.742C559.634 380.871 563.345 373.641 565 365.816H521.979Z" fill="#FDBF00"/>
<path d="M575.751 347.278H531.287V303.213C531.287 300.769 530.308 298.426 528.567 296.698C526.825 294.971 524.463 294 522 294C509.54 294 497.359 297.666 486.999 304.533C476.639 311.401 468.564 321.162 463.796 332.582C459.027 344.003 457.78 356.569 460.211 368.693C462.641 380.817 468.642 391.953 477.452 400.694C486.263 409.435 497.489 415.387 509.709 417.799C521.93 420.211 534.597 418.973 546.109 414.242C557.621 409.512 567.46 401.501 574.383 391.223C581.305 380.945 585 368.861 585 356.5C585.002 354.061 584.03 351.721 582.296 349.993C580.563 348.264 578.209 347.288 575.751 347.278ZM522 400.565C511.02 400.572 500.427 396.546 492.263 389.263C484.099 381.979 478.943 371.955 477.789 361.123C476.636 350.29 479.566 339.418 486.015 330.603C492.464 321.787 501.975 315.653 512.713 313.384V356.491C512.713 358.934 513.692 361.277 515.433 363.005C517.175 364.733 519.537 365.704 522 365.704H565.452C563.319 375.568 557.843 384.409 549.936 390.753C542.029 397.096 532.169 400.56 522 400.565Z" fill="black"/>
<path d="M558 288V322H591C589.253 313.664 585.212 306.024 579.359 299.994C573.506 293.964 566.091 289.8 558 288Z" fill="#4BB9EC"/>
<path d="M549.254 269C546.8 269 544.446 269.975 542.711 271.709C540.975 273.444 540 275.797 540 278.25V331.75C540 334.203 540.975 336.556 542.711 338.291C544.446 340.025 546.8 341 549.254 341H602.746C605.2 341 607.554 340.025 609.289 338.291C611.025 336.556 612 334.203 612 331.75C611.993 315.117 605.381 299.166 593.616 287.4C581.852 275.635 565.897 269.017 549.254 269ZM558.509 322.501V288.471C566.856 290.272 574.507 294.44 580.546 300.475C586.584 306.51 590.754 314.157 592.556 322.501H558.509Z" fill="black"/>
</g>
<defs>
<clipPath id="clip0_304_711">
<rect width="800" height="800" fill="white"/>
</clipPath>
</defs>
</svg>
