<svg width="800" height="800" viewBox="0 0 800 800" fill="none" xmlns="http://www.w3.org/2000/svg">
<g clip-path="url(#clip0_310_1064)">
<path d="M800 400C800 620.914 620.914 800 400 800C179.086 800 0 620.914 0 400C0 179.086 179.086 0 400 0C620.914 0 800 179.086 800 400Z" fill="#FBD71D"/>
<path d="M652 625.109C652 636.645 642.557 646.09 631.006 646.09H168.995C157.444 646.091 148 636.646 148 625.109V226.086C148 214.534 157.444 205.09 168.995 205.09H631.006C642.557 205.09 652 214.533 652 226.086V625.109Z" fill="#4A89DC"/>
<path d="M652 604.079C652 615.615 642.557 625.09 631.006 625.09H168.995C157.444 625.09 148 615.615 148 604.079V205.085C148 193.534 157.444 184.09 168.995 184.09H631.006C642.557 184.09 652 193.534 652 205.085V604.079Z" fill="#5D9CEC"/>
<path d="M631.006 184.09H168.995C157.444 184.09 148 193.534 148 205.086V268.09H652V205.085C652 193.533 642.557 184.09 631.006 184.09Z" fill="#ED5564"/>
<path d="M242.501 153C236.702 153 231.995 157.692 231.995 163.49V226.49C231.995 232.289 236.702 236.996 242.501 236.996C248.3 236.996 253.006 232.289 253.006 226.49V163.489C253.006 157.691 248.3 153 242.501 153Z" fill="#E6E9ED"/>
<path d="M347.506 153C341.707 153 337.001 157.692 337.001 163.49V226.49C337.001 232.289 341.707 236.996 347.506 236.996C353.305 236.996 357.995 232.289 357.995 226.49V163.489C357.995 157.691 353.304 153 347.506 153Z" fill="#E6E9ED"/>
<path d="M452.497 153C446.697 153 442.007 157.692 442.007 163.49V226.49C442.007 232.289 446.698 236.996 452.497 236.996C458.295 236.996 463.001 232.289 463.001 226.49V163.489C463.001 157.691 458.295 153 452.497 153Z" fill="#E6E9ED"/>
<path d="M557.502 153C551.702 153 546.996 157.692 546.996 163.49V226.49C546.996 232.289 551.702 236.996 557.502 236.996C563.3 236.996 568.006 232.289 568.006 226.49V163.489C568.006 157.691 563.3 153 557.502 153Z" fill="#E6E9ED"/>
<path d="M431.985 521.09H369.015L369 584.09H432L431.985 521.09Z" fill="#7F4545"/>
<path d="M306 542.09L400.5 374.09L495 542.09H306Z" fill="#8CC153"/>
<path d="M327 458.09L400.492 311.09L474 458.09H327Z" fill="#A0D468"/>
<path d="M274.001 310.607C268.202 310.607 263.496 315.313 263.496 321.112C263.496 326.912 268.202 331.602 274.001 331.602C279.8 331.602 284.506 326.912 284.506 321.112C284.506 315.313 279.8 310.607 274.001 310.607Z" fill="#F5F7FA"/>
<path d="M526.002 310.607C520.202 310.607 515.496 315.313 515.496 321.112C515.496 326.912 520.202 331.602 526.002 331.602C531.801 331.602 536.507 326.912 536.507 321.112C536.507 315.313 531.801 310.607 526.002 310.607Z" fill="#F5F7FA"/>
<path d="M211.001 373.607C205.202 373.607 200.495 378.314 200.495 384.112C200.495 389.911 205.202 394.617 211.001 394.617C216.8 394.617 221.506 389.911 221.506 384.112C221.506 378.314 216.8 373.607 211.001 373.607Z" fill="#F5F7FA"/>
<path d="M274.001 436.592C268.202 436.592 263.496 441.299 263.496 447.114C263.496 452.897 268.202 457.602 274.001 457.602C279.8 457.602 284.506 452.897 284.506 447.114C284.506 441.298 279.8 436.592 274.001 436.592Z" fill="#F5F7FA"/>
<path d="M337.001 373.607C331.202 373.607 326.495 378.314 326.495 384.112C326.495 389.911 331.202 394.617 337.001 394.617C342.8 394.617 347.506 389.911 347.506 384.112C347.506 378.314 342.8 373.607 337.001 373.607Z" fill="#F5F7FA"/>
<path d="M463.001 373.607C457.202 373.607 452.496 378.314 452.496 384.112C452.496 389.911 457.202 394.617 463.001 394.617C468.8 394.617 473.506 389.911 473.506 384.112C473.506 378.314 468.8 373.607 463.001 373.607Z" fill="#F5F7FA"/>
<path d="M526.002 436.592C520.202 436.592 515.496 441.299 515.496 447.114C515.496 452.897 520.202 457.602 526.002 457.602C531.801 457.602 536.507 452.897 536.507 447.114C536.507 441.298 531.801 436.592 526.002 436.592Z" fill="#F5F7FA"/>
<path d="M589.001 373.607C583.202 373.607 578.495 378.314 578.495 384.112C578.495 389.911 583.202 394.617 589.001 394.617C594.8 394.617 599.506 389.911 599.506 384.112C599.506 378.314 594.8 373.607 589.001 373.607Z" fill="#F5F7FA"/>
<path d="M211.001 499.593C205.202 499.593 200.495 504.299 200.495 510.113C200.495 515.896 205.202 520.603 211.001 520.603C216.8 520.603 221.506 515.896 221.506 510.113C221.506 504.299 216.8 499.593 211.001 499.593Z" fill="#F5F7FA"/>
<path d="M274.001 562.591C268.202 562.591 263.496 567.297 263.496 573.112C263.496 578.896 268.202 583.602 274.001 583.602C279.8 583.602 284.506 578.896 284.506 573.112C284.506 567.297 279.8 562.591 274.001 562.591Z" fill="#F5F7FA"/>
<path d="M526.002 562.591C520.202 562.591 515.496 567.297 515.496 573.112C515.496 578.896 520.202 583.602 526.002 583.602C531.801 583.602 536.507 578.896 536.507 573.112C536.507 567.297 531.801 562.591 526.002 562.591Z" fill="#F5F7FA"/>
<path d="M589.001 499.593C583.202 499.593 578.495 504.299 578.495 510.113C578.495 515.896 583.202 520.603 589.001 520.603C594.8 520.603 599.506 515.896 599.506 510.113C599.506 504.299 594.8 499.593 589.001 499.593Z" fill="#F5F7FA"/>
</g>
<defs>
<clipPath id="clip0_310_1064">
<rect width="800" height="800" fill="white"/>
</clipPath>
</defs>
</svg>
