<svg width="50" height="60" viewBox="0 0 50 60" fill="none" xmlns="http://www.w3.org/2000/svg">
<path d="M47.9179 59.869H9.56185C8.59936 59.869 7.81836 59.0935 7.81836 58.1378V8.50981C7.81836 7.55408 8.59936 6.77856 9.56185 6.77856H33.9702C34.4322 6.77856 34.876 6.96117 35.2029 7.28583L49.1505 21.1355C49.4775 21.46 49.6614 21.9006 49.6614 22.3595V58.1378C49.6614 59.0935 48.8804 59.869 47.9179 59.869Z" fill="#76CCE0"/>
<path d="M35.2029 7.28583C34.876 6.96117 34.4322 6.77856 33.9702 6.77856H28.7399V59.869H47.9179C48.8804 59.869 49.6614 59.0935 49.6614 58.1378V22.3595C49.6614 21.9007 49.4775 21.46 49.1505 21.1355L35.2029 7.28583Z" fill="#42BBD7"/>
<path d="M49.1508 21.1357L35.2028 7.28583C34.8759 6.96106 34.4322 6.77856 33.9697 6.77856H32.2267L32.2268 22.3595C32.2268 23.3155 33.0074 24.0907 33.9703 24.0907H49.6613V22.3595C49.6613 21.9004 49.4776 21.4603 49.1508 21.1357Z" fill="#76CCE0"/>
<path d="M16.5356 35.6319C17.4985 35.6319 18.2791 34.8568 18.2791 33.9007C18.2791 32.9445 17.4985 32.1694 16.5356 32.1694C15.5727 32.1694 14.7921 32.9445 14.7921 33.9007C14.7921 34.8568 15.5727 35.6319 16.5356 35.6319Z" fill="white"/>
<path d="M16.5356 42.5568C17.4985 42.5568 18.2791 41.7817 18.2791 40.8255C18.2791 39.8694 17.4985 39.0943 16.5356 39.0943C15.5727 39.0943 14.7921 39.8694 14.7921 40.8255C14.7921 41.7817 15.5727 42.5568 16.5356 42.5568Z" fill="white"/>
<path d="M16.5356 49.4815C17.4985 49.4815 18.2791 48.7064 18.2791 47.7503C18.2791 46.7942 17.4985 46.019 16.5356 46.019C15.5727 46.019 14.7921 46.7942 14.7921 47.7503C14.7921 48.7064 15.5727 49.4815 16.5356 49.4815Z" fill="white"/>
<path d="M40.9441 49.4815H23.5095C22.547 49.4815 21.766 48.706 21.766 47.7503C21.766 46.7946 22.547 46.019 23.5095 46.019H40.9441C41.9066 46.019 42.6876 46.7946 42.6876 47.7503C42.6875 48.7061 41.9066 49.4815 40.9441 49.4815Z" fill="white"/>
<path d="M40.9441 46.0193H28.7399V49.4817H40.9441C41.9066 49.4817 42.6876 48.7062 42.6876 47.7505C42.6875 46.7948 41.9066 46.0193 40.9441 46.0193Z" fill="#E6F3FF"/>
<path d="M40.9441 42.5568H23.5095C22.547 42.5568 21.766 41.7813 21.766 40.8255C21.766 39.8698 22.547 39.0943 23.5095 39.0943H40.9441C41.9066 39.0943 42.6876 39.8698 42.6876 40.8255C42.6875 41.7814 41.9066 42.5568 40.9441 42.5568Z" fill="white"/>
<path d="M40.9441 39.0945H28.7399V42.5569H40.9441C41.9066 42.5569 42.6876 41.7814 42.6876 40.8256C42.6875 39.87 41.9066 39.0945 40.9441 39.0945Z" fill="#E6F3FF"/>
<path d="M40.9441 35.6319H23.5095C22.547 35.6319 21.766 34.8564 21.766 33.9007C21.766 32.9449 22.547 32.1694 23.5095 32.1694H40.9441C41.9066 32.1694 42.6876 32.9449 42.6876 33.9007C42.6875 34.8564 41.9066 35.6319 40.9441 35.6319Z" fill="white"/>
<path d="M40.9441 32.1696H28.7399V35.6319H40.9441C41.9066 35.6319 42.6876 34.8564 42.6876 33.9007C42.6875 32.945 41.9066 32.1696 40.9441 32.1696Z" fill="#E6F3FF"/>
<g clip-path="url(#clip0_92_537)">
<path d="M6.60248 14.2019C6.60248 14.2019 2.01461 13.228 1.93611 13.243C1.85762 13.2579 0.939041 14.1704 0.970774 14.3114C1.00251 14.4541 5.02086 16.5595 5.02086 16.5595L6.17492 15.35L6.60248 14.2019Z" fill="#006CA8"/>
<path d="M5.96948 17.4236C5.96948 17.4236 8.19912 21.2578 8.29431 21.2578C8.38951 21.2578 9.41665 20.4714 9.41665 20.3934C9.41665 20.3154 8.46801 15.743 8.46801 15.743L6.83795 15.9321L5.96948 17.4236Z" fill="#006CA8"/>
<path d="M4.21584 5.07534C4.21584 5.07534 3.89517 5.43536 3.82669 5.56311C3.75822 5.69085 3.74653 5.90985 3.8935 5.98783C4.04047 6.06581 4.21918 6.01272 4.30769 5.91483C4.39621 5.81694 4.83212 5.28438 4.83212 5.28438C4.83212 5.28438 4.25425 5.04547 4.21584 5.07534Z" fill="#9A9A9A"/>
<path d="M6.55745 6.37769C6.55745 6.37769 6.29858 6.68296 6.19336 6.82232C6.09148 6.9567 6.09315 7.16741 6.23512 7.26695C6.43887 7.40963 6.64096 7.25036 6.75119 7.13257C6.85307 7.02307 7.14033 6.68793 7.14033 6.68793L6.55745 6.37769Z" fill="#9A9A9A"/>
<path d="M8.77367 7.56207C8.77367 7.56207 8.43463 7.89887 8.33442 8.03325C8.22252 8.18091 8.19747 8.39659 8.35112 8.51272C8.51981 8.63881 8.70686 8.58075 8.85884 8.4447C9.01083 8.31032 9.34986 7.94034 9.34986 7.94034L8.77367 7.56207Z" fill="#9A9A9A"/>
<path d="M14.6241 13.2495C14.6241 13.2495 14.2266 13.5232 14.1281 13.6294C14.0312 13.7356 13.966 13.948 14.0913 14.0591C14.2149 14.1703 14.402 14.1603 14.5122 14.0873C14.6224 14.0143 15.1736 13.6012 15.1736 13.6012C15.1736 13.6012 14.6692 13.2312 14.6241 13.2495Z" fill="#9A9A9A"/>
<path d="M15.9635 15.3333C15.9635 15.3333 15.6345 15.5623 15.4976 15.6701C15.3639 15.7746 15.3122 15.9787 15.4241 16.1114C15.5827 16.3006 15.8216 16.1994 15.9568 16.1131C16.0838 16.0334 16.4479 15.7813 16.4479 15.7813L15.9635 15.3333Z" fill="#9A9A9A"/>
<path d="M17.1894 17.4636C17.1894 17.4636 16.7803 17.7092 16.6483 17.8153C16.5047 17.9331 16.4279 18.1355 16.5498 18.2849C16.6834 18.4475 16.8788 18.4342 17.0592 18.3413C17.2395 18.2484 17.6571 17.9696 17.6571 17.9696L17.1894 17.4636Z" fill="#9A9A9A"/>
<path d="M9.97448 4.73494C9.97448 4.73494 9.91603 4.34837 10.2317 3.91204C10.5473 3.4757 11.5945 2.45703 11.7565 2.44873C11.9185 2.44043 12.306 2.6445 12.6951 3.02443C13.0659 3.38445 13.2379 3.84733 13.2446 3.95683C13.2513 4.06633 12.5198 4.78637 12.3294 4.96057C12.139 5.13478 11.6263 5.70218 11.6263 5.70218L9.97448 4.73494Z" fill="#9A9A9A"/>
<path d="M10.4521 4.79313C10.4521 4.79313 11.7348 3.23526 12.0789 3.46919C12.4263 3.70478 11.0384 5.04199 11.0384 5.04199L10.4521 4.79313Z" fill="#C8C8C8"/>
<path d="M10.1582 4.69367C10.1582 4.69367 10.8847 3.96201 10.9648 3.84588C11.045 3.72974 10.9715 3.55554 10.9064 3.45931C10.8413 3.36475 10.741 3.32825 10.741 3.32825C10.741 3.32825 10.2283 3.78449 10.053 4.18433C9.916 4.49458 9.93938 4.65219 9.93938 4.65219L10.1582 4.69367Z" fill="#848484"/>
<path d="M11.4091 5.07037C11.4091 5.07037 11.6846 4.78667 11.8233 4.67385C11.9485 4.57265 12.1339 4.5826 12.2441 4.6473C12.3861 4.73026 12.4195 4.87294 12.4195 4.87294L11.9084 5.41214L11.4091 5.07037Z" fill="#848484"/>
<path d="M17.4384 10.6613C17.4384 10.6613 17.8576 10.1768 18.1014 9.93462C18.3536 9.6841 18.7644 9.34398 18.848 9.35062C18.9315 9.35892 19.3006 9.58123 19.6479 9.93462C20.0438 10.3361 20.2893 10.8355 20.296 10.8819C20.3043 10.9267 19.5644 11.6617 19.2354 11.9421C18.9999 12.1428 17.5352 12.7368 17.5352 12.6621C17.5386 12.5858 17.4384 10.6613 17.4384 10.6613Z" fill="#9A9A9A"/>
<path d="M17.6804 11.5988C17.6804 11.5988 18.8929 10.2782 19.1702 10.5254C19.4474 10.7726 17.7823 12.2591 17.7823 12.2591L17.6804 11.5988Z" fill="#C8C8C8"/>
<path d="M17.5904 11.2669L18.033 10.7825C18.19 10.6116 18.18 10.3826 18.1332 10.2831C18.0731 10.1554 17.9178 10.1255 17.9178 10.1255L17.3416 10.7344L17.5904 11.2669Z" fill="#848484"/>
<path d="M18.0095 12.3636C18.0095 12.3636 18.7042 11.7414 18.8228 11.6435C18.9414 11.5457 19.1335 11.476 19.2854 11.5805C19.399 11.6585 19.4491 11.753 19.4491 11.753C19.4491 11.753 18.9147 12.3304 18.5923 12.5345C18.3903 12.6622 17.9126 12.7352 17.9126 12.7352L18.0095 12.3636Z" fill="#848484"/>
<path d="M2.35537 2.27803C2.19169 2.2913 1.15454 3.50906 1.1178 3.59865C1.08105 3.68824 1.1178 3.83424 1.37333 3.96033C1.62719 4.08642 8.80043 7.84921 8.91066 7.9388C9.01922 8.03005 10.4405 9.60285 10.4405 9.60285C10.4405 9.60285 13.9545 7.19719 13.9361 7.12585C13.9177 7.05285 13.8092 5.55305 13.8092 5.55305C13.8092 5.55305 2.59253 2.25978 2.35537 2.27803Z" fill="#006CA8"/>
<path d="M12.6067 11.7199C12.6067 11.7199 14.7545 13.6544 14.9365 13.89C15.1186 14.1255 18.833 20.8531 18.8881 20.9609C18.9432 21.0688 19.1787 21.16 19.3073 21.0339C19.4359 20.9079 20.3996 20.075 20.4179 19.8759C20.4363 19.6768 16.8488 8.19269 16.8488 8.19269L14.0814 9.18813L12.6067 11.7199Z" fill="#006CA8"/>
<path d="M11.5678 7.97531C11.5678 7.97531 9.87427 6.34775 9.74734 6.2565C9.62041 6.16691 1.68224 2.9118 1.68224 2.9118L1.35657 3.26851C1.35657 3.26851 9.40329 6.64473 9.53189 6.73432C9.66049 6.82391 11.2354 8.42658 11.2354 8.42658L11.5678 7.97531Z" fill="#014EAC"/>
<path d="M14.1714 10.8274C14.1714 10.8274 16.0369 13.1036 16.1488 13.2513C16.2607 13.399 19.5325 20.825 19.5325 20.825L19.8582 20.523C19.8582 20.523 16.5897 12.946 16.5313 12.8432C16.4728 12.7403 14.3 10.0725 14.3 10.0725L14.1714 10.8274Z" fill="#014EAC"/>
<path d="M4.45459 17.1235C4.45459 17.1235 3.75647 18.1157 3.75647 18.1936C3.75647 18.2733 4.22411 18.781 4.27755 18.781C4.331 18.781 5.34644 18.0609 5.34644 18.0609L5.20448 17.3409L4.45459 17.1235Z" fill="#9A9A9A"/>
<path d="M4.45471 17.1234C4.45471 17.1234 5.83759 14.8123 7.319 12.7468C8.84049 10.6248 10.0747 9.40208 11.972 7.35146C14.3519 4.77989 15.9369 3.32322 17.4033 2.34271C18.6191 1.52976 20.3561 0.978945 20.9757 1.5281C21.6555 2.132 20.9056 4.03662 20.1423 5.12166C18.4104 7.58373 16.924 8.75504 15.2187 10.3992C13.5369 12.0201 12.1156 13.427 10.3553 14.7393C9.16951 15.6236 5.3449 18.0641 5.3449 18.0641L4.45471 17.1234Z" fill="#C8C8C8"/>
<path d="M17.7657 2.63142L18.2284 3.11587C18.2284 3.11587 19.0033 2.37426 19.5829 2.92673C20.1774 3.49248 19.3574 4.29547 19.3574 4.29547L19.8568 4.8496C19.8568 4.8496 21.2112 3.32657 20.1056 2.3361C19.1436 1.47338 17.7657 2.63142 17.7657 2.63142Z" fill="#3B5361"/>
<path d="M8.39956 13.0754C8.18412 13.2811 5.63883 16.2741 5.49686 16.4516C5.31482 16.6806 5.23131 16.956 5.43674 17.1252C5.64217 17.2928 5.86429 17.1268 6.06638 16.9925C6.32024 16.8249 9.2697 14.24 9.46511 14.0609C9.7791 13.7722 9.83254 13.2512 9.50185 12.9559C9.13776 12.6307 8.72691 12.7635 8.39956 13.0754Z" fill="#9A9A9A"/>
<path d="M8.30767 12.3968C8.16236 12.2723 7.98199 12.3553 7.79159 12.5594C7.62792 12.7369 7.55276 13.0123 7.71644 13.1234C7.88011 13.2346 8.09723 13.072 8.23251 12.9078C8.36779 12.7452 8.47134 12.5378 8.30767 12.3968Z" fill="#DFDFDF"/>
<path d="M18.0246 7.70162C18.0246 7.70162 17.9327 7.08444 17.5469 7.32667C17.1327 7.58714 17.4417 8.29391 17.4417 8.29391C17.4417 8.29391 17.597 8.14957 17.7624 7.97703C17.8993 7.83601 17.9795 7.75305 18.0246 7.70162Z" fill="#3B5361"/>
<path d="M16.5432 9.15331C16.5432 9.15331 16.478 8.36193 16.0405 8.68711C15.6914 8.94759 15.9286 9.7257 15.9286 9.7257C15.9286 9.7257 16.129 9.54486 16.2592 9.42208C16.3912 9.29765 16.5432 9.15331 16.5432 9.15331Z" fill="#3B5361"/>
<path d="M15.1302 10.4837C15.1302 10.4837 15.0801 9.82674 14.6876 10.0441C14.2951 10.2614 14.5573 11.0379 14.5573 11.0379C14.5573 11.0379 14.731 10.8819 14.8479 10.7658C14.9648 10.6496 15.1302 10.4837 15.1302 10.4837Z" fill="#3B5361"/>
<path d="M13.5302 12.0202C13.5302 12.0202 13.5001 11.3665 13.1143 11.5407C12.7135 11.7215 12.954 12.5594 12.954 12.5594C12.954 12.5594 13.1494 12.3785 13.258 12.2773C13.3682 12.1778 13.5302 12.0202 13.5302 12.0202Z" fill="#3B5361"/>
</g>
<defs>
<clipPath id="clip0_92_537">
<rect width="21.3778" height="21.2362" fill="white" transform="translate(0.409546 0.798218)"/>
</clipPath>
</defs>
</svg>
