<svg width="800" height="800" viewBox="0 0 800 800" fill="none" xmlns="http://www.w3.org/2000/svg">
<g clip-path="url(#clip0_304_811)">
<path d="M800 400C800 620.914 620.914 800 400 800C179.086 800 0 620.914 0 400C0 179.086 179.086 0 400 0C620.914 0 800 179.086 800 400Z" fill="#54C0EB"/>
<path d="M587.76 526H122.24C111.061 526 102 516.941 102 505.765V202.235C102 191.059 111.061 182 122.24 182H587.76C598.939 182 608 191.059 608 202.235V505.765C608 516.941 598.939 526 587.76 526Z" fill="#B4E66E"/>
<path d="M567.579 334C483.865 334 416 401.864 416 485.579C416 499.6 418.055 513.113 421.619 526H587.789C598.951 526 608 516.951 608 505.789V339.62C595.114 336.055 581.6 334 567.579 334Z" fill="#A0D755"/>
<path d="M253.899 334H173.1C167.523 334 163 329.466 163 323.875V263.125C163 257.534 167.523 253 173.1 253H253.9C259.477 253 264 257.534 264 263.125V323.875C263.999 329.467 259.477 334 253.899 334Z" fill="#FFC850"/>
<path d="M243.662 417.207H162.712C155.727 417.207 150.064 411.544 150.064 404.559C150.064 397.573 155.727 391.911 162.712 391.911H243.662C250.647 391.911 256.309 397.573 256.309 404.559C256.309 411.544 250.647 417.207 243.662 417.207Z" fill="white"/>
<path d="M486.509 477.919H162.712C155.727 477.919 150.064 472.257 150.064 465.271C150.064 458.286 155.727 452.624 162.712 452.624H486.509C493.495 452.624 499.157 458.286 499.157 465.271C499.157 472.257 493.495 477.919 486.509 477.919Z" fill="white"/>
<path d="M486.368 453H419.288C417.476 461.101 416.429 469.463 416 478H486.367C493.344 478 499 472.404 499 465.501C499 458.597 493.345 453 486.368 453Z" fill="#E4EAF8"/>
<path d="M365.262 417H283.738C276.702 417 271 411.404 271 404.5C271 397.596 276.702 392 283.738 392H365.262C372.298 392 378 397.596 378 404.5C378.001 411.404 372.298 417 365.262 417Z" fill="white"/>
<path d="M233.8 283.375H213.4V253H193V334H213.4V303.625H233.8C239.432 303.625 244 299.091 244 293.5C244 287.909 239.432 283.375 233.8 283.375Z" fill="#E1A546"/>
<path d="M441 334C466.405 334 487 313.629 487 288.5C487 263.371 466.405 243 441 243C415.595 243 395 263.371 395 288.5C395 313.629 415.595 334 441 334Z" fill="#FF507D"/>
<path d="M501.5 334C526.629 334 547 313.629 547 288.5C547 263.371 526.629 243 501.5 243C476.371 243 456 263.371 456 288.5C456 313.629 476.371 334 501.5 334Z" fill="#FFC850"/>
<path d="M456 288C456 301.545 462.051 313.596 471.5 322C480.949 313.596 487 301.545 487 288C487 274.455 480.949 262.404 471.5 254C462.051 262.405 456 274.455 456 288Z" fill="#FF8C66"/>
<path d="M486.381 417H405.619C398.649 417 393 411.404 393 404.5C393 397.596 398.649 392 405.619 392H486.381C493.351 392 499 397.596 499 404.5C499 411.404 493.351 417 486.381 417Z" fill="white"/>
<path d="M432 417H486.373C493.347 417 499 411.404 499 404.5C499 397.596 493.347 392 486.373 392H448.058C441.903 399.756 436.534 408.122 432 417Z" fill="#E4EAF8"/>
<path d="M567.5 607C634.603 607 689 552.603 689 485.5C689 418.397 634.603 364 567.5 364C500.397 364 446 418.397 446 485.5C446 552.603 500.397 607 567.5 607Z" fill="white"/>
<path d="M567.214 354C540.977 354 515.829 361.718 494.389 375.951L496.254 370.121C497.946 364.796 495.007 359.107 489.671 357.407C484.355 355.718 478.633 358.661 476.93 363.976L464.476 402.936C463.445 406.185 464.109 409.733 466.268 412.38C468.198 414.761 471.099 416.124 474.138 416.124C474.475 416.124 474.821 416.104 475.158 416.075L515.935 411.955C521.508 411.392 525.568 406.434 525.002 400.871C524.437 395.309 519.588 391.349 513.894 391.824L505.823 392.641C523.912 380.699 545.109 374.231 567.214 374.231C628.701 374.231 678.725 424.147 678.725 485.5C678.725 546.853 628.701 596.769 567.214 596.769C561.61 596.769 557.077 601.293 557.077 606.885C557.077 612.476 561.61 617 567.214 617C639.879 617 699 558.007 699 485.5C699 412.993 639.879 354 567.214 354Z" fill="#FFDC64"/>
<path d="M524.533 609.243C523.337 609.243 522.132 609.036 520.955 608.59C514.385 606.1 507.941 603.047 501.824 599.518C496.983 596.732 495.313 590.546 498.108 585.704C500.885 580.862 507.081 579.182 511.923 581.987C517.112 584.971 522.555 587.56 528.109 589.656C533.336 591.633 535.975 597.473 533.998 602.701C532.467 606.752 528.614 609.243 524.533 609.243Z" fill="#FFF082"/>
<path d="M476.686 576.269C473.9 576.269 471.123 575.123 469.118 572.869C464.414 567.572 460.127 561.89 456.381 555.991C453.387 551.269 454.79 545.012 459.504 542.019C464.237 539.024 470.483 540.418 473.476 545.141C476.638 550.131 480.265 554.934 484.256 559.43C487.962 563.61 487.586 570.002 483.406 573.718C481.479 575.43 479.078 576.269 476.686 576.269Z" fill="#FFF082"/>
<path d="M449.582 524.904C445.047 524.904 440.915 521.831 439.77 517.227C438.07 510.39 436.924 503.353 436.352 496.329C435.906 490.756 440.057 485.874 445.62 485.42C451.154 485.023 456.076 489.125 456.529 494.688C457.004 500.637 457.981 506.575 459.414 512.346C460.759 517.771 457.458 523.256 452.032 524.609C451.212 524.806 450.392 524.904 449.582 524.904Z" fill="#FFF082"/>
<path d="M449.483 466.812C448.682 466.812 447.882 466.723 447.072 466.525C441.648 465.2 438.316 459.717 439.641 454.291C441.311 447.464 443.554 440.705 446.301 434.202C448.476 429.063 454.415 426.652 459.561 428.827C464.709 431.001 467.111 436.94 464.937 442.086C462.605 447.591 460.717 453.312 459.305 459.092C458.18 463.718 454.038 466.812 449.483 466.812Z" fill="#FFF082"/>
<path d="M577.6 477.765V446.088C590.278 448.182 597.8 453.783 597.8 457.174C597.8 462.742 602.317 467.246 607.9 467.246C613.483 467.246 618 462.742 618 457.174C618 441.085 601.214 428.495 577.6 425.68V425.072C577.6 419.504 573.083 415 567.5 415C561.917 415 557.4 419.504 557.4 425.072V425.68C533.786 428.495 517 441.084 517 457.174C517 479.589 539.087 488.129 557.4 493.235V524.912C544.722 522.818 537.2 517.217 537.2 513.826C537.2 508.258 532.683 503.754 527.1 503.754C521.517 503.754 517 508.258 517 513.826C517 529.915 533.786 542.505 557.4 545.32V545.928C557.4 551.496 561.917 556 567.5 556C573.083 556 577.6 551.496 577.6 545.928V545.32C601.214 542.506 618 529.916 618 513.826C618 491.413 595.915 482.872 577.6 477.765ZM537.201 457.174C537.201 453.783 544.723 448.181 557.401 446.088V472.101C542.84 467.405 537.201 463.104 537.201 457.174ZM577.6 524.913V498.901C592.16 503.595 597.8 507.897 597.8 513.827C597.8 517.218 590.278 522.819 577.6 524.913Z" fill="#FFC850"/>
</g>
<defs>
<clipPath id="clip0_304_811">
<rect width="800" height="800" fill="white"/>
</clipPath>
</defs>
</svg>
