<svg width="56" height="60" viewBox="0 0 56 60" fill="none" xmlns="http://www.w3.org/2000/svg">
<path d="M47.7497 59.7371H9.47082C8.51026 59.7371 7.73083 58.9633 7.73083 58.0097V8.4924C7.73083 7.5388 8.51026 6.76501 9.47082 6.76501H33.8301C34.2912 6.76501 34.7341 6.94721 35.0603 7.27115L48.9799 21.0899C49.3062 21.4138 49.4897 21.8534 49.4897 22.3112V58.0097C49.4897 58.9633 48.7103 59.7371 47.7497 59.7371Z" fill="#76CCE0"/>
<path d="M35.0602 7.27115C34.7341 6.94721 34.2911 6.76501 33.8301 6.76501H28.6102V59.7371H47.7497C48.7102 59.7371 49.4897 58.9633 49.4897 58.0097V22.3112C49.4897 21.8535 49.3061 21.4138 48.9798 21.0899L35.0602 7.27115Z" fill="#42BBD7"/>
<path d="M48.9801 21.0901L35.0602 7.27115C34.7339 6.94711 34.2911 6.76501 33.8296 6.76501H32.0901L32.0902 22.3112C32.0902 23.2651 32.8692 24.0386 33.8302 24.0386H49.4896V22.3112C49.4896 21.8531 49.3063 21.414 48.9801 21.0901Z" fill="#76CCE0"/>
<path d="M16.4305 35.5542C17.3915 35.5542 18.1705 34.7808 18.1705 33.8268C18.1705 32.8728 17.3915 32.0994 16.4305 32.0994C15.4696 32.0994 14.6906 32.8728 14.6906 33.8268C14.6906 34.7808 15.4696 35.5542 16.4305 35.5542Z" fill="white"/>
<path d="M16.4305 42.4636C17.3915 42.4636 18.1705 41.6902 18.1705 40.7362C18.1705 39.7822 17.3915 39.0088 16.4305 39.0088C15.4696 39.0088 14.6906 39.7822 14.6906 40.7362C14.6906 41.6902 15.4696 42.4636 16.4305 42.4636Z" fill="white"/>
<path d="M16.4305 49.3729C17.3915 49.3729 18.1705 48.5995 18.1705 47.6455C18.1705 46.6915 17.3915 45.9181 16.4305 45.9181C15.4696 45.9181 14.6906 46.6915 14.6906 47.6455C14.6906 48.5995 15.4696 49.3729 16.4305 49.3729Z" fill="white"/>
<path d="M40.7899 49.3729H23.3904C22.4298 49.3729 21.6504 48.5991 21.6504 47.6455C21.6504 46.6919 22.4298 45.9181 23.3904 45.9181H40.7899C41.7505 45.9181 42.5299 46.6919 42.5299 47.6455C42.5298 48.5992 41.7505 49.3729 40.7899 49.3729Z" fill="white"/>
<path d="M40.7899 45.9183H28.6102V49.3729H40.7899C41.7505 49.3729 42.5299 48.5992 42.5299 47.6456C42.5298 46.692 41.7505 45.9183 40.7899 45.9183Z" fill="#E6F3FF"/>
<path d="M40.7899 42.4635H23.3904C22.4298 42.4635 21.6504 41.6897 21.6504 40.7361C21.6504 39.7825 22.4298 39.0087 23.3904 39.0087H40.7899C41.7505 39.0087 42.5299 39.7825 42.5299 40.7361C42.5298 41.6898 41.7505 42.4635 40.7899 42.4635Z" fill="white"/>
<path d="M40.7899 39.009H28.6102V42.4637H40.7899C41.7505 42.4637 42.5299 41.6899 42.5299 40.7363C42.5298 39.7828 41.7505 39.009 40.7899 39.009Z" fill="#E6F3FF"/>
<path d="M40.7899 35.5542H23.3904C22.4298 35.5542 21.6504 34.7804 21.6504 33.8268C21.6504 32.8732 22.4298 32.0994 23.3904 32.0994H40.7899C41.7505 32.0994 42.5299 32.8732 42.5299 33.8268C42.5298 34.7804 41.7505 35.5542 40.7899 35.5542Z" fill="white"/>
<path d="M40.7899 32.0995H28.6102V35.5542H40.7899C41.7505 35.5542 42.5299 34.7804 42.5299 33.8268C42.5298 32.8732 41.7505 32.0995 40.7899 32.0995Z" fill="#E6F3FF"/>
<g clip-path="url(#clip0_92_735)">
<path d="M34.1768 39.7902L33.6606 40.2978L30.1011 43.8363H30.0962L30.0274 43.9047L30.0225 43.8999L29.993 43.8705H29.9881L27.4955 41.3912L27.4513 41.3521L27.407 41.3033L24.9145 38.8336L24.8751 38.7947L29.0245 34.6752L34.1768 39.7902Z" fill="#FBE6B7"/>
<path d="M54.9876 18.1983C54.9482 18.369 54.8598 18.535 54.727 18.6668L52.4705 20.9069L51.9887 21.3852L51.7281 21.6439C51.3348 22.0344 50.6859 22.0344 50.2876 21.6439L48.798 20.1651L47.3034 18.6813C46.9052 18.286 46.9052 17.6418 47.3034 17.2513L47.564 16.9926L48.0458 16.5143L48.6456 15.9188L50.2974 14.2742C50.4302 14.1424 50.5973 14.0545 50.7743 14.0155C51.1086 13.9277 51.4823 14.0155 51.7429 14.2742L53.2325 15.758L54.727 17.2367C54.9876 17.4954 55.0761 17.8663 54.9876 18.1983Z" fill="white"/>
<path d="M52.8343 21.2681L48.2867 25.7828L45.7105 23.2252L43.1344 20.6677L47.682 16.1531L52.4705 20.9069L52.8343 21.2681Z" fill="#F9F5AB"/>
<path d="M53.4341 20.6677L52.8343 21.2681L52.3525 21.7415L51.9887 21.3852L47.564 16.9926L47.2002 16.6315L48.2818 15.5577L53.0702 20.3115L53.4341 20.6677Z" fill="#EA5346"/>
<path d="M49.1126 24.958L48.2866 25.783L42.333 31.6934L34.1768 39.7904L33.6606 40.298L31.0894 37.7406L28.5133 35.1831L29.0245 34.6754L37.1807 26.5784L43.1343 20.6679L43.9603 19.848L46.5364 22.4054L49.1126 24.958Z" fill="#E4AC23"/>
<path d="M30.0963 43.8365L30.0275 43.8561L29.9931 43.8707H29.9882L25.4603 45.1739C25.4554 45.1642 25.4504 45.1592 25.4504 45.1495C25.2537 44.7737 25.003 44.4174 24.6835 44.1001C24.3639 43.7829 24.005 43.5291 23.6216 43.3387C23.6167 43.3339 23.6068 43.3339 23.6019 43.3289L24.9146 38.8338L24.9294 38.7899L24.9491 38.7216L25.0032 38.7753L27.5251 41.2791L27.6185 41.3718L30.0423 43.7779L30.0963 43.8365Z" fill="#FBE6B7"/>
<path d="M25.4897 45.1397L25.4504 45.1495L25.4455 45.1543L23.7789 45.6375L22.8743 45.8962L23.1348 44.9981L23.6215 43.3386L23.6363 43.2948C24.0247 43.49 24.3934 43.7438 24.7179 44.066C25.0423 44.388 25.298 44.7541 25.4897 45.1397Z" fill="#595A59"/>
<path d="M42.333 31.6932L34.1769 39.7902L30.1013 43.8363L30.0177 43.9194L30.0226 43.8998L30.0276 43.8558L30.0423 43.7778L30.5634 40.8543L27.6186 41.3717L27.4957 41.3912L27.3924 41.4106H27.3875L27.4071 41.3033L27.4269 41.1813L27.948 38.2577L25.0031 38.7751L24.9293 38.7898L24.8802 38.7995H24.8704L29.0246 34.6752L37.1807 26.5782L42.333 31.6932Z" fill="#E4AC23"/>
<path d="M34.1768 39.7902L33.6606 40.2978L30.1011 43.8363H30.0962L30.0274 43.9047L30.0225 43.8999L29.993 43.8705H29.9881L27.4955 41.3912L27.4513 41.3521L27.407 41.3033L24.9145 38.8336L24.8751 38.7947L29.0245 34.6752L34.1768 39.7902Z" fill="#FBE6B7"/>
<path d="M54.9876 18.1983C54.9482 18.369 54.8598 18.535 54.727 18.6668L52.4705 20.9069L51.9887 21.3852L51.7281 21.6439C51.3348 22.0344 50.6859 22.0344 50.2876 21.6439L48.798 20.1651L47.3034 18.6813C46.9052 18.286 46.9052 17.6418 47.3034 17.2513L47.564 16.9926L48.0458 16.5143L48.6456 15.9188L50.2974 14.2742C50.4302 14.1424 50.5973 14.0545 50.7743 14.0155C51.1086 13.9277 51.4823 14.0155 51.7429 14.2742L53.2325 15.758L54.727 17.2367C54.9876 17.4954 55.0761 17.8663 54.9876 18.1983Z" fill="white"/>
<path d="M52.8343 21.2681L48.2867 25.7828L45.7105 23.2252L43.1344 20.6677L47.682 16.1531L52.4705 20.9069L52.8343 21.2681Z" fill="#F9F5AB"/>
<path d="M53.4341 20.6677L52.8343 21.2681L52.3525 21.7415L51.9887 21.3852L47.564 16.9926L47.2002 16.6315L48.2818 15.5577L53.0702 20.3115L53.4341 20.6677Z" fill="#EA5346"/>
<path d="M49.1126 24.958L48.2866 25.783L42.333 31.6934L34.1768 39.7904L33.6606 40.298L31.0894 37.7406L28.5133 35.1831L29.0245 34.6754L37.1807 26.5784L43.1343 20.6679L43.9603 19.848L46.5364 22.4054L49.1126 24.958Z" fill="#E4AC23"/>
<path d="M30.0963 43.8365L30.0275 43.8561L29.9931 43.8707H29.9882L25.4603 45.1739C25.4554 45.1642 25.4504 45.1592 25.4504 45.1495C25.2537 44.7737 25.003 44.4174 24.6835 44.1001C24.3639 43.7829 24.005 43.5291 23.6216 43.3387C23.6167 43.3339 23.6068 43.3339 23.6019 43.3289L24.9146 38.8338L24.9294 38.7899L24.9491 38.7216L25.0032 38.7753L27.5251 41.2791L27.6185 41.3718L30.0423 43.7779L30.0963 43.8365Z" fill="#FBE6B7"/>
<path d="M25.4897 45.1397L25.4504 45.1495L25.4455 45.1543L23.7789 45.6375L22.8743 45.8962L23.1348 44.9981L23.6215 43.3386L23.6363 43.2948C24.0247 43.49 24.3934 43.7438 24.7179 44.066C25.0423 44.388 25.298 44.7541 25.4897 45.1397Z" fill="#595A59"/>
<path d="M42.333 31.6932L34.1769 39.7902L30.1013 43.8363L30.0177 43.9194L30.0226 43.8998L30.0276 43.8558L30.0423 43.7778L30.5634 40.8543L27.6186 41.3717L27.4957 41.3912L27.3924 41.4106H27.3875L27.4071 41.3033L27.4269 41.1813L27.948 38.2577L25.0031 38.7751L24.9293 38.7898L24.8802 38.7995H24.8704L29.0246 34.6752L37.1807 26.5782L42.333 31.6932Z" fill="#E4AC23"/>
<path opacity="0.08" d="M53.0726 20.3098L54.7255 18.6689C55.122 18.2753 55.1219 17.6313 54.7255 17.2376L53.2333 15.7563L22.8754 45.8944L25.4475 45.1534C25.451 45.1602 25.4553 45.1668 25.4587 45.1736L29.9904 43.8681L30.0211 43.8987L30.0176 43.9184L30.0293 43.9068L33.6629 40.2996L34.1762 39.7899L42.3344 31.6909L48.2868 25.7815L49.1145 24.9598L52.3543 21.7435L52.8324 21.2689L53.4356 20.67L53.0726 20.3098Z" fill="#040000"/>
</g>
<g clip-path="url(#clip1_92_735)">
<path d="M6.51742 14.1719C6.51742 14.1719 1.93878 13.2002 1.86044 13.2151C1.7821 13.23 0.865373 14.1404 0.897042 14.2811C0.928711 14.4235 4.93898 16.5242 4.93898 16.5242L6.09072 15.3174L6.51742 14.1719Z" fill="#006CA8"/>
<path d="M5.88586 17.3865C5.88586 17.3865 8.11101 21.2121 8.20602 21.2121C8.30103 21.2121 9.3261 20.4274 9.3261 20.3496C9.3261 20.2718 8.37937 15.7096 8.37937 15.7096L6.75259 15.8983L5.88586 17.3865Z" fill="#006CA8"/>
<path d="M4.13561 5.06563C4.13561 5.06563 3.81559 5.42484 3.74725 5.55231C3.67891 5.67977 3.66725 5.89828 3.81392 5.97608C3.9606 6.05389 4.13894 6.00091 4.22728 5.90325C4.31562 5.80558 4.75065 5.2742 4.75065 5.2742C4.75065 5.2742 4.17395 5.03583 4.13561 5.06563Z" fill="#9A9A9A"/>
<path d="M6.47235 6.3653C6.47235 6.3653 6.214 6.66988 6.10899 6.80894C6.00732 6.94302 6.00898 7.15325 6.15066 7.25258C6.35401 7.39494 6.55569 7.23602 6.66569 7.11849C6.76737 7.00924 7.05405 6.67485 7.05405 6.67485L6.47235 6.3653Z" fill="#9A9A9A"/>
<path d="M8.68434 7.54694C8.68434 7.54694 8.34599 7.88298 8.24598 8.01706C8.13431 8.16439 8.1093 8.37959 8.26265 8.49547C8.43099 8.62128 8.61767 8.56334 8.76935 8.4276C8.92103 8.29351 9.25938 7.92436 9.25938 7.92436L8.68434 7.54694Z" fill="#9A9A9A"/>
<path d="M14.5231 13.2218C14.5231 13.2218 14.1264 13.4949 14.0281 13.6009C13.9314 13.7068 13.8664 13.9187 13.9914 14.0296C14.1148 14.1405 14.3015 14.1306 14.4115 14.0577C14.5215 13.9849 15.0715 13.5727 15.0715 13.5727C15.0715 13.5727 14.5681 13.2036 14.5231 13.2218Z" fill="#9A9A9A"/>
<path d="M15.8598 15.3009C15.8598 15.3009 15.5314 15.5293 15.3947 15.6369C15.2614 15.7412 15.2097 15.9448 15.3214 16.0773C15.4798 16.266 15.7181 16.165 15.8531 16.0789C15.9798 15.9995 16.3431 15.7479 16.3431 15.7479L15.8598 15.3009Z" fill="#9A9A9A"/>
<path d="M17.0832 17.4264C17.0832 17.4264 16.6748 17.6714 16.5431 17.7773C16.3998 17.8949 16.3231 18.0968 16.4448 18.2458C16.5781 18.408 16.7732 18.3948 16.9532 18.3021C17.1332 18.2094 17.5499 17.9313 17.5499 17.9313L17.0832 17.4264Z" fill="#9A9A9A"/>
<path d="M9.88268 4.72611C9.88268 4.72611 9.82434 4.34041 10.1394 3.90505C10.4544 3.46968 11.4995 2.45328 11.6611 2.44501C11.8228 2.43673 12.2095 2.64034 12.5979 3.01942C12.9679 3.37864 13.1396 3.84049 13.1462 3.94974C13.1529 4.059 12.4229 4.77743 12.2328 4.95125C12.0428 5.12506 11.5311 5.6912 11.5311 5.6912L9.88268 4.72611Z" fill="#9A9A9A"/>
<path d="M10.3594 4.7842C10.3594 4.7842 11.6395 3.2298 11.9828 3.46321C12.3295 3.69828 10.9444 5.03251 10.9444 5.03251L10.3594 4.7842Z" fill="#C8C8C8"/>
<path d="M10.0661 4.68495C10.0661 4.68495 10.7911 3.95492 10.8711 3.83905C10.9511 3.72317 10.8778 3.54936 10.8128 3.45335C10.7478 3.35899 10.6478 3.32257 10.6478 3.32257C10.6478 3.32257 10.1361 3.7778 9.96104 4.17675C9.82437 4.4863 9.8477 4.64356 9.8477 4.64356L10.0661 4.68495Z" fill="#848484"/>
<path d="M11.3145 5.06065C11.3145 5.06065 11.5895 4.77758 11.7278 4.66501C11.8528 4.56404 12.0378 4.57397 12.1478 4.63853C12.2895 4.7213 12.3229 4.86366 12.3229 4.86366L11.8128 5.40166L11.3145 5.06065Z" fill="#848484"/>
<path d="M17.3317 10.6392C17.3317 10.6392 17.75 10.1558 17.9934 9.91415C18.2451 9.66419 18.6551 9.32483 18.7384 9.33146C18.8218 9.33973 19.1901 9.56155 19.5368 9.91415C19.9318 10.3147 20.1769 10.813 20.1835 10.8594C20.1919 10.9041 19.4535 11.6374 19.1251 11.9172C18.8901 12.1175 17.4283 12.7101 17.4283 12.6356C17.4317 12.5594 17.3317 10.6392 17.3317 10.6392Z" fill="#9A9A9A"/>
<path d="M17.5732 11.5747C17.5732 11.5747 18.7833 10.257 19.06 10.5037C19.3367 10.7503 17.6749 12.2335 17.6749 12.2335L17.5732 11.5747Z" fill="#C8C8C8"/>
<path d="M17.4832 11.2435L17.9249 10.7601C18.0816 10.5896 18.0716 10.3612 18.0249 10.2619C17.9649 10.1344 17.8099 10.1046 17.8099 10.1046L17.2349 10.7121L17.4832 11.2435Z" fill="#848484"/>
<path d="M17.9016 12.3378C17.9016 12.3378 18.595 11.7171 18.7133 11.6194C18.8317 11.5217 19.0233 11.4522 19.175 11.5565C19.2884 11.6343 19.3384 11.7287 19.3384 11.7287C19.3384 11.7287 18.805 12.3047 18.4833 12.5084C18.2816 12.6358 17.8049 12.7087 17.8049 12.7087L17.9016 12.3378Z" fill="#848484"/>
<path d="M2.27888 2.27473C2.11554 2.28798 1.08047 3.50302 1.0438 3.59241C1.00713 3.6818 1.0438 3.82748 1.29881 3.95328C1.55216 4.07909 8.71098 7.83349 8.82099 7.92288C8.92933 8.01392 10.3478 9.58322 10.3478 9.58322C10.3478 9.58322 13.8547 7.18292 13.8363 7.11174C13.818 7.03891 13.7097 5.54245 13.7097 5.54245C13.7097 5.54245 2.51556 2.25652 2.27888 2.27473Z" fill="#006CA8"/>
<path d="M12.5095 11.6955C12.5095 11.6955 14.653 13.6256 14.8347 13.8607C15.0164 14.0958 18.7233 20.8083 18.7783 20.9159C18.8333 21.0235 19.0683 21.1146 19.1966 20.9888C19.325 20.863 20.2867 20.032 20.305 19.8333C20.3234 19.6347 16.7431 8.17615 16.7431 8.17615L13.9813 9.16937L12.5095 11.6955Z" fill="#006CA8"/>
<path d="M11.4728 7.95925C11.4728 7.95925 9.78268 6.33533 9.656 6.24428C9.52933 6.15489 1.60713 2.90704 1.60713 2.90704L1.2821 3.26295C1.2821 3.26295 9.31265 6.63164 9.44099 6.72103C9.56933 6.81042 11.1411 8.40951 11.1411 8.40951L11.4728 7.95925Z" fill="#014EAC"/>
<path d="M14.0713 10.805C14.0713 10.805 15.9331 13.0761 16.0448 13.2235C16.1564 13.3708 19.4216 20.7803 19.4216 20.7803L19.7467 20.479C19.7467 20.479 16.4848 12.9189 16.4264 12.8162C16.3681 12.7136 14.1996 10.0518 14.1996 10.0518L14.0713 10.805Z" fill="#014EAC"/>
<path d="M4.37396 17.087C4.37396 17.087 3.67725 18.0769 3.67725 18.1547C3.67725 18.2342 4.14394 18.7407 4.19728 18.7407C4.25062 18.7407 5.26402 18.0223 5.26402 18.0223L5.12234 17.3038L4.37396 17.087Z" fill="#9A9A9A"/>
<path d="M4.37402 17.087C4.37402 17.087 5.75412 14.781 7.23255 12.7201C8.75098 10.6029 9.98273 9.38286 11.8762 7.33682C14.2514 4.77098 15.8331 3.31756 17.2966 2.33924C18.51 1.5281 20.2434 0.978517 20.8618 1.52645C21.5402 2.129 20.7918 4.02938 20.0301 5.11199C18.3016 7.56857 16.8182 8.73727 15.1164 10.3777C13.438 11.995 12.0195 13.3988 10.2628 14.7082C9.07934 15.5905 5.26242 18.0256 5.26242 18.0256L4.37402 17.087Z" fill="#C8C8C8"/>
<path d="M17.6583 2.62742L18.12 3.11079C18.12 3.11079 18.8934 2.37084 19.4718 2.92208C20.0652 3.48656 19.2468 4.28776 19.2468 4.28776L19.7451 4.84066C19.7451 4.84066 21.0969 3.32102 19.9935 2.33276C19.0334 1.47197 17.6583 2.62742 17.6583 2.62742Z" fill="#3B5361"/>
<path d="M8.31097 13.0479C8.09595 13.2532 5.55578 16.2395 5.4141 16.4166C5.23243 16.645 5.14909 16.9198 5.3541 17.0887C5.55911 17.2559 5.7808 17.0903 5.98248 16.9562C6.23583 16.789 9.17936 14.21 9.37437 14.0312C9.68773 13.7432 9.74106 13.2234 9.41104 12.9287C9.04768 12.6043 8.63765 12.7367 8.31097 13.0479Z" fill="#9A9A9A"/>
<path d="M8.21926 12.371C8.07425 12.2469 7.89423 12.3296 7.70422 12.5332C7.54088 12.7104 7.46587 12.9851 7.62922 13.0961C7.79256 13.207 8.00924 13.0447 8.14425 12.8809C8.27926 12.7186 8.3826 12.5117 8.21926 12.371Z" fill="#DFDFDF"/>
<path d="M17.9165 7.68607C17.9165 7.68607 17.8248 7.07027 17.4398 7.31196C17.0264 7.57185 17.3348 8.27704 17.3348 8.27704C17.3348 8.27704 17.4898 8.13302 17.6548 7.96086C17.7915 7.82016 17.8715 7.73739 17.9165 7.68607Z" fill="#3B5361"/>
<path d="M16.4381 9.13452C16.4381 9.13452 16.3731 8.34491 15.9364 8.66936C15.5881 8.92925 15.8248 9.70563 15.8248 9.70563C15.8248 9.70563 16.0248 9.52519 16.1548 9.40269C16.2865 9.27854 16.4381 9.13452 16.4381 9.13452Z" fill="#3B5361"/>
<path d="M15.028 10.4621C15.028 10.4621 14.978 9.80662 14.5863 10.0235C14.1946 10.2403 14.4563 11.015 14.4563 11.015C14.4563 11.015 14.6297 10.8594 14.7464 10.7436C14.863 10.6277 15.028 10.4621 15.028 10.4621Z" fill="#3B5361"/>
<path d="M13.4312 11.9952C13.4312 11.9952 13.4012 11.3429 13.0162 11.5168C12.6162 11.6972 12.8562 12.5332 12.8562 12.5332C12.8562 12.5332 13.0512 12.3527 13.1596 12.2517C13.2696 12.1524 13.4312 11.9952 13.4312 11.9952Z" fill="#3B5361"/>
</g>
<defs>
<clipPath id="clip0_92_735">
<rect width="32.1485" height="31.9156" fill="white" transform="translate(22.8743 13.9826)"/>
</clipPath>
<clipPath id="clip1_92_735">
<rect width="21.3348" height="21.1888" fill="white" transform="translate(0.337036 0.798218)"/>
</clipPath>
</defs>
</svg>
