<?xml version="1.0" encoding="iso-8859-1"?>
<!-- Uploaded to: SVG Repo, www.svgrepo.com, Generator: SVG Repo Mixer Tools -->
<svg version="1.1" id="Layer_1" xmlns="http://www.w3.org/2000/svg" xmlns:xlink="http://www.w3.org/1999/xlink" 
	 viewBox="0 0 512 512" xml:space="preserve">
<path style="fill:#616F6D;" d="M502.801,187.809C472.949,79.53,373.769,0,256,0C114.616,0,0,114.616,0,256
	c0,117.769,79.53,216.949,187.809,246.801L502.801,187.809z"/>
<path style="fill:#394B48;" d="M512,256c0-23.615-3.213-46.477-9.199-68.191l-79.844-79.844L89.043,404.035l98.766,98.766
	C209.522,508.787,232.385,512,256,512C397.384,512,512,397.384,512,256z"/>
<polygon style="fill:#F63341;" points="422.957,107.965 367.304,107.965 345.043,259.339 367.304,404.035 422.957,404.035 "/>
<polygon style="fill:#F85C67;" points="311.652,107.965 289.391,259.339 311.652,404.035 367.304,404.035 367.304,107.965 "/>
<polygon style="fill:#D8F4F2;" points="367.304,130.226 356.174,303.861 400.696,292.73 400.696,130.226 "/>
<polygon style="fill:#FFFFFF;" points="367.304,130.226 333.913,130.226 333.913,292.73 367.304,303.861 "/>
<polygon style="fill:#40D2BE;" points="367.304,314.991 400.696,314.991 400.696,292.73 367.304,292.73 356.174,303.861 "/>
<rect x="333.913" y="292.73" style="fill:#7DDCD4;" width="33.391" height="22.261"/>
<path style="fill:#263230;" d="M367.304,337.252l-11.13,22.261l11.13,22.261c12.295,0,22.261-9.966,22.261-22.261
	S379.599,337.252,367.304,337.252z"/>
<path style="fill:#1A534A;" d="M345.043,359.513c0,12.295,9.966,22.261,22.261,22.261v-44.522
	C355.01,337.252,345.043,347.218,345.043,359.513z"/>
<polygon style="fill:#F9BE02;" points="200.348,107.965 144.696,107.965 122.435,259.339 144.696,404.035 200.348,404.035 
	222.609,259.339 "/>
<rect x="89.043" y="107.965" style="fill:#FBD867;" width="55.652" height="296.07"/>
<polygon style="fill:#FEF2CC;" points="144.696,130.226 133.565,303.861 178.087,292.73 178.087,130.226 "/>
<polygon style="fill:#FFFFFF;" points="144.696,130.226 111.304,130.226 111.304,292.73 144.696,303.861 "/>
<polygon style="fill:#7DDCD4;" points="144.696,314.991 178.087,314.991 178.087,292.73 144.696,292.73 133.565,303.861 "/>
<rect x="111.304" y="292.73" style="fill:#B1EAE5;" width="33.391" height="22.261"/>
<path style="fill:#394B48;" d="M144.696,337.252l-11.13,22.261l11.13,22.261c12.295,0,22.261-9.966,22.261-22.261
	S156.99,337.252,144.696,337.252z"/>
<path style="fill:#4C6460;" d="M122.435,359.513c0,12.295,9.966,22.261,22.261,22.261v-44.522
	C132.401,337.252,122.435,347.218,122.435,359.513z"/>
<polygon style="fill:#02AF92;" points="311.652,107.965 256,107.965 233.739,259.339 256,404.035 311.652,404.035 "/>
<rect x="200.348" y="107.965" style="fill:#40D2BE;" width="55.652" height="296.07"/>
<polygon style="fill:#D8F4F2;" points="256,130.226 244.87,303.861 289.391,292.73 289.391,130.226 "/>
<polygon style="fill:#FFFFFF;" points="256,130.226 222.609,130.226 222.609,292.73 256,303.861 "/>
<polygon style="fill:#40D2BE;" points="256,314.991 289.391,314.991 289.391,292.73 256,292.73 244.87,303.861 "/>
<rect x="222.609" y="292.73" style="fill:#7DDCD4;" width="33.391" height="22.261"/>
<path style="fill:#263230;" d="M256,337.252l-11.13,22.261L256,381.774c12.295,0,22.261-9.966,22.261-22.261
	S268.295,337.252,256,337.252z"/>
<path style="fill:#1A534A;" d="M233.739,359.513c0,12.295,9.966,22.261,22.261,22.261v-44.522
	C243.705,337.252,233.739,347.218,233.739,359.513z"/>
</svg>