<svg width="800" height="800" viewBox="0 0 800 800" fill="none" xmlns="http://www.w3.org/2000/svg">
<g clip-path="url(#clip0_304_835)">
<path d="M800 400C800 620.914 620.914 800 400 800C179.086 800 0 620.914 0 400C0 179.086 179.086 0 400 0C620.914 0 800 179.086 800 400Z" fill="#54C0EB"/>
<path d="M586.416 263.869L459.547 137H178.622V662.601H586.416V263.869Z" fill="#EFEBDE"/>
<path d="M269.243 345.428H495.795C500.797 345.428 504.857 341.378 504.857 336.366C504.857 331.355 500.797 327.304 495.795 327.304H269.243C264.24 327.304 260.181 331.355 260.181 336.366C260.181 341.378 264.24 345.428 269.243 345.428Z" fill="#D5D0BB"/>
<path d="M269.243 272.932H359.864C364.866 272.932 368.926 268.882 368.926 263.87C368.926 258.859 364.866 254.808 359.864 254.808H269.243C264.24 254.808 260.181 258.859 260.181 263.87C260.181 268.882 264.24 272.932 269.243 272.932Z" fill="#D5D0BB"/>
<path d="M495.795 399.801H269.243C264.24 399.801 260.181 403.852 260.181 408.863C260.181 413.875 264.24 417.925 269.243 417.925H495.795C500.797 417.925 504.857 413.875 504.857 408.863C504.857 403.852 500.797 399.801 495.795 399.801Z" fill="#D5D0BB"/>
<path d="M495.795 472.298H269.243C264.24 472.298 260.181 476.349 260.181 481.36C260.181 486.372 264.24 490.423 269.243 490.423H495.795C500.797 490.423 504.857 486.372 504.857 481.36C504.857 476.349 500.797 472.298 495.795 472.298Z" fill="#D5D0BB"/>
<path d="M495.795 544.795H269.243C264.24 544.795 260.181 548.846 260.181 553.858C260.181 558.869 264.24 562.92 269.243 562.92H495.795C500.797 562.92 504.857 558.869 504.857 553.858C504.857 548.846 500.797 544.795 495.795 544.795Z" fill="#D5D0BB"/>
<path d="M459.547 137V263.869H586.416L459.547 137Z" fill="#D5D0BB"/>
<path d="M695.161 573.721L694.192 575.198C629.661 673.757 524.069 673.757 459.547 575.198L460.517 573.721C525.039 475.152 630.63 475.152 695.161 573.721Z" fill="white"/>
<path d="M575.216 606.589C604.79 606.589 628.764 582.615 628.764 553.042C628.764 523.468 604.79 499.494 575.216 499.494C545.642 499.494 521.668 523.468 521.668 553.042C521.668 582.615 545.642 606.589 575.216 606.589Z" fill="#556080"/>
<path d="M576.874 658.18C529.261 658.18 484.912 630.468 451.971 580.164L448.727 575.207L452.94 568.764C485.881 518.451 530.24 490.749 577.852 490.749C625.456 490.749 669.814 518.451 702.755 568.764L705.999 573.721L701.786 580.164C668.836 630.477 624.477 658.18 576.874 658.18ZM470.448 575.162C499.501 617.065 537.109 640.056 576.874 640.056C617.073 640.056 655.08 616.549 684.259 573.748C655.206 531.845 617.599 508.855 577.843 508.855C537.635 508.864 499.628 532.362 470.448 575.162Z" fill="#8697CB"/>
</g>
<defs>
<clipPath id="clip0_304_835">
<rect width="800" height="800" fill="white"/>
</clipPath>
</defs>
</svg>
