<svg width="800" height="800" viewBox="0 0 800 800" fill="none" xmlns="http://www.w3.org/2000/svg">
<g clip-path="url(#clip0_301_494)">
<circle cx="400" cy="400" r="400" fill="#54C0EB"/>
<path d="M178.146 625.283C171.818 625.283 171.818 617.143 171.818 611.717V145.061C171.818 139.635 171.818 136.922 178.146 136.922H567.787C573.212 136.922 578.636 139.635 578.636 145.061V611.717C578.636 617.143 573.212 625.283 567.787 625.283H178.146Z" fill="#E8EFEE"/>
<path d="M560.349 155.214V607.886H189.209V155.214H560.349ZM567.59 119H177.441C161.147 119 153 129.864 153 145.255V612.413C153 627.804 161.147 644.1 177.441 644.1H567.59C582.979 644.1 596.557 627.804 596.557 612.413V145.255C596.557 129.864 582.979 119 567.59 119Z" fill="#9AA5A4"/>
<path d="M567.811 136.922H178.146C171.818 136.922 171.818 139.635 171.818 145.062V611.766C171.818 615.384 171.818 618.097 173.626 619.906L575.948 138.731C574.14 136.922 570.523 136.922 567.811 136.922Z" fill="white"/>
<path d="M587.597 125.328C582.164 120.808 574.921 119 567.678 119H177.446C161.149 119 153 129.847 153 145.214V611.645C153 620.684 153.905 626.108 159.338 634.243L189.216 604.414V155.157H560.434V158.773L587.597 125.328Z" fill="#B3BCBB"/>
<path d="M270.026 254.708H483.54C490.777 254.708 497.11 248.375 497.11 241.137C497.11 233.899 490.777 227.566 483.54 227.566H270.026C262.788 227.566 256.455 233.899 256.455 241.137C256.455 248.375 262.788 254.708 270.026 254.708Z" fill="#E8EFEE"/>
<path d="M270.026 327.085H393.068C400.305 327.085 406.638 320.752 406.638 313.515C406.638 306.277 401.21 299.944 393.972 299.944H270.026C262.788 299.944 256.455 306.277 256.455 313.515C256.455 320.752 262.788 327.085 270.026 327.085Z" fill="#E8EFEE"/>
<path d="M483.54 372.321H270.026C262.788 372.321 256.455 383.178 256.455 390.416C256.455 397.653 262.788 408.51 270.026 408.51H483.54C490.777 408.51 497.11 397.653 497.11 390.416C497.11 383.178 491.682 372.321 483.54 372.321Z" fill="#E8EFEE"/>
<path d="M393.972 453.746H270.026C262.788 453.746 256.455 460.079 256.455 467.317C256.455 474.555 262.788 480.888 270.026 480.888H393.068C400.305 480.888 406.638 474.555 406.638 467.317C407.543 460.079 401.21 453.746 393.972 453.746Z" fill="#E8EFEE"/>
<path d="M265.502 245.661H479.016C486.254 245.661 492.587 239.328 492.587 232.09C492.587 224.852 487.158 218.519 479.016 218.519H265.502C258.264 218.519 251.931 224.852 251.931 232.09C251.931 239.328 258.264 245.661 265.502 245.661Z" fill="#B1BAB9"/>
<path d="M479.016 372.321H265.502C258.264 372.321 251.931 378.654 251.931 385.892C251.931 393.13 258.264 399.463 265.502 399.463H479.016C486.254 399.463 492.587 393.13 492.587 385.892C492.587 378.654 487.158 372.321 479.016 372.321Z" fill="#B1BAB9"/>
<path d="M389.449 444.699H265.502C258.264 444.699 251.931 451.032 251.931 458.27C251.931 465.508 258.264 471.841 265.502 471.841H388.544C395.782 471.841 402.115 465.508 402.115 458.27C403.02 451.032 396.686 444.699 389.449 444.699Z" fill="#9AA5A4"/>
<path d="M389.449 290.897H265.502C258.264 290.897 251.931 297.23 251.931 304.468C251.931 311.705 258.264 318.038 265.502 318.038H388.544C395.782 318.038 402.115 311.705 402.115 304.468C403.02 297.23 396.686 290.897 389.449 290.897Z" fill="#9AA5A4"/>
<path opacity="0.3" d="M524.252 681.736C591.706 681.736 646.389 627.053 646.389 559.599C646.389 492.144 591.706 437.461 524.252 437.461C456.797 437.461 402.115 492.144 402.115 559.599C402.115 627.053 456.797 681.736 524.252 681.736Z" fill="#9AA5A4"/>
<path d="M508.742 681.736C576.047 681.736 630.608 626.974 630.608 559.421C630.608 491.869 576.047 437.107 508.742 437.107C441.437 437.107 386.876 491.869 386.876 559.421C386.876 626.974 441.437 681.736 508.742 681.736Z" fill="#5AC117"/>
<path d="M508.742 437.107C576.445 437.107 630.608 491.469 630.608 559.421C630.608 627.374 576.445 681.736 508.742 681.736" fill="#44A307"/>
<path d="M422.719 473.969C470.674 426.014 547.583 426.014 595.538 473.969C643.493 521.924 643.493 598.833 595.538 646.789" fill="#4DB20D"/>
<path d="M558.631 565.931C554.108 565.931 551.394 562.313 551.394 558.694C551.394 530.647 528.776 507.125 499.825 507.125C495.301 507.125 492.587 503.506 492.587 499.887C492.587 496.268 496.206 492.649 499.825 492.649C536.013 492.649 565.869 522.505 565.869 558.694C565.869 563.217 562.25 565.931 558.631 565.931Z" fill="#44A307"/>
<path d="M558.632 582.216C556.822 582.216 555.013 581.312 553.203 580.407L534.204 561.408C531.49 558.694 531.49 554.17 534.204 550.551C536.918 547.837 541.442 547.837 545.061 550.551L558.632 564.122L572.202 550.551C574.916 547.837 579.44 547.837 583.059 550.551C585.773 553.265 585.773 557.789 583.059 561.408L563.155 580.407C562.25 581.312 560.441 582.216 558.632 582.216Z" fill="#44A307"/>
<path d="M463.636 563.217C468.16 563.217 470.874 566.836 470.874 570.455C470.874 598.501 493.492 622.024 522.443 622.024C526.966 622.024 529.68 625.643 529.68 629.262C529.68 633.785 526.062 636.5 522.443 636.5C486.254 636.5 456.398 606.644 456.398 570.455C456.398 566.836 460.017 563.217 463.636 563.217Z" fill="#44A307"/>
<path d="M463.636 546.933C465.445 546.933 467.255 547.837 469.064 548.742L488.063 567.741C490.777 570.455 490.777 574.979 488.063 578.598C485.349 581.312 480.826 581.312 477.207 578.598L463.636 565.027L450.065 578.598C447.351 581.312 442.827 581.312 439.208 578.598C436.494 575.884 436.494 571.36 439.208 567.741L458.208 548.742C460.017 547.837 461.826 546.933 463.636 546.933Z" fill="#44A307"/>
<path d="M554.108 555.979C549.584 555.979 546.87 552.36 546.87 548.742C546.87 520.695 524.252 497.173 495.301 497.173C490.778 497.173 488.063 493.554 488.063 489.935C488.063 485.411 491.682 482.697 495.301 482.697C531.49 482.697 561.346 512.553 561.346 548.742C561.346 553.265 558.631 555.979 554.108 555.979Z" fill="white"/>
<path d="M554.108 572.264C552.298 572.264 550.489 571.36 548.679 570.455L529.68 551.456C526.966 548.742 526.966 544.218 529.68 540.599C532.395 537.885 536.918 537.885 540.537 540.599L554.108 554.17L567.679 540.599C570.393 537.885 574.916 537.885 578.535 540.599C581.249 543.313 581.249 547.837 578.535 551.456L559.536 570.455C557.727 571.36 555.917 572.264 554.108 572.264Z" fill="white"/>
<path d="M460.017 553.265C464.541 553.265 467.255 556.884 467.255 560.503C467.255 588.549 489.873 612.072 518.824 612.072C523.348 612.072 526.062 615.691 526.062 619.31C526.062 623.833 522.443 626.547 518.824 626.547C482.635 626.547 452.779 596.692 452.779 560.503C451.875 556.884 455.494 553.265 460.017 553.265Z" fill="white"/>
<path d="M460.017 536.98C461.826 536.98 463.636 537.885 465.445 538.79L484.444 557.789C487.159 560.503 487.159 565.027 484.444 568.645C481.73 571.36 477.207 571.36 473.588 568.645L460.017 555.075L446.446 568.645C443.732 571.36 439.208 571.36 435.59 568.645C432.875 565.931 432.875 561.408 435.59 557.789L454.589 538.79C455.493 537.885 458.208 536.98 460.017 536.98Z" fill="white"/>
</g>
<defs>
<clipPath id="clip0_301_494">
<rect width="800" height="800" fill="white"/>
</clipPath>
</defs>
</svg>
