<svg width="800" height="800" viewBox="0 0 800 800" fill="none" xmlns="http://www.w3.org/2000/svg">
<g clip-path="url(#clip0_305_889)">
<path d="M800 400C800 620.914 620.914 800 400 800C179.086 800 0 620.914 0 400C0 179.086 179.086 0 400 0C620.914 0 800 179.086 800 400Z" fill="#54C0EB"/>
<path d="M607.787 262.191L478.808 133.212H193.213V667.553H607.787V262.191Z" fill="#FFE100"/>
<path d="M488.021 418.808C488.021 485.14 434.588 538.574 368.256 538.574C301.924 538.574 248.489 485.14 248.489 418.808C248.489 352.477 301.923 299.043 368.255 299.043C434.587 299.043 488.021 352.477 488.021 418.808Z" fill="#63D3FD"/>
<path d="M193.213 667.553H220.851V133.212H193.213V667.553Z" fill="white"/>
<path d="M478.808 133.212H469.596L580.149 262.191V667.553H607.787V262.191L478.808 133.212Z" fill="#FFA800"/>
<path d="M478.808 133.212V262.191H607.787L478.808 133.212Z" fill="#FDCC00"/>
<path d="M616.999 676.766H184V124H482.493L617 258.507V676.766H616.999ZM202.425 658.34H598.573V265.876L475.123 142.426H202.425V658.34Z" fill="black"/>
<path d="M607.787 271.404H469.596V133.212H488.022V252.979H607.787V271.404Z" fill="black"/>
<path d="M368.254 547.786C297.316 547.786 239.275 489.746 239.275 418.808C239.275 347.869 297.317 289.83 368.254 289.83C439.192 289.83 497.233 347.87 497.233 418.809C497.233 489.747 439.193 547.786 368.254 547.786ZM368.254 308.255C307.45 308.255 257.701 358.004 257.701 418.809C257.701 479.613 307.45 529.362 368.254 529.362C429.059 529.362 478.807 479.613 478.807 418.809C478.807 358.004 429.059 308.255 368.254 308.255Z" fill="black"/>
<path d="M552.51 593.851C550.667 593.851 547.903 592.93 546.061 591.087L453.934 508.172C450.249 504.487 450.249 498.96 453.013 495.274C456.698 491.589 462.226 491.589 465.911 494.353L558.039 577.268C561.723 580.952 561.723 586.48 558.959 590.166C557.117 592.93 555.274 593.851 552.51 593.851Z" fill="black"/>
<path d="M368.255 493.432C342.459 493.432 322.19 473.164 322.19 447.368C322.19 441.84 325.875 438.155 331.403 438.155C336.93 438.155 340.615 441.84 340.615 447.368C340.615 463.03 352.591 475.006 368.254 475.006C376.545 475.006 383.916 471.321 389.443 464.872C392.207 462.108 393.128 458.423 392.207 454.737C392.207 451.053 389.443 447.367 386.679 444.603L338.773 406.83C331.403 401.303 326.797 393.011 325.875 383.799C324.954 374.586 327.718 366.295 333.246 359.845C342.458 349.711 354.435 343.262 368.255 343.262C394.05 343.262 414.319 363.53 414.319 389.326C414.319 394.854 410.634 398.539 405.106 398.539C399.579 398.539 395.894 394.854 395.894 389.326C395.894 373.664 383.918 361.688 368.256 361.688C359.964 361.688 352.594 365.373 347.066 371.822C344.302 374.586 343.381 378.271 344.302 381.957C344.302 385.642 347.066 389.327 349.83 392.091L397.736 429.864C405.106 435.392 409.712 443.683 410.634 452.895C411.555 462.108 408.791 470.399 403.263 476.849C394.972 487.904 382.074 493.432 368.255 493.432Z" fill="black"/>
<path d="M368.254 510.936C362.727 510.936 359.042 507.251 359.042 501.724V335.894C359.042 330.366 362.727 326.682 368.254 326.682C373.782 326.682 377.467 330.366 377.467 335.894V501.724C377.468 507.251 373.782 510.936 368.254 510.936Z" fill="black"/>
</g>
<defs>
<clipPath id="clip0_305_889">
<rect width="800" height="800" fill="white"/>
</clipPath>
</defs>
</svg>
