<svg width="800" height="800" viewBox="0 0 800 800" fill="none" xmlns="http://www.w3.org/2000/svg">
<g clip-path="url(#clip0_298_379)">
<circle cx="400" cy="400" r="400" fill="#54C0EB"/>
<path d="M572.126 141.092H428.448C428.448 156.897 415.517 169.828 399.712 169.828C383.908 169.828 370.977 156.897 370.977 141.092H227.299C195.689 141.092 169.827 166.954 169.827 198.563V658.333C169.827 689.943 195.689 715.805 227.299 715.805H572.126C603.735 715.805 629.597 689.943 629.597 658.333V198.563C629.597 166.954 603.735 141.092 572.126 141.092Z" fill="#455A64"/>
<path d="M572.126 672.701H227.299C218.678 672.701 212.931 666.954 212.931 658.333V198.563C212.931 189.943 218.678 184.195 227.299 184.195H572.126C580.747 184.195 586.494 189.943 586.494 198.563V658.333C586.494 666.954 580.747 672.701 572.126 672.701Z" fill="white"/>
<path d="M428.448 141.092C428.448 156.897 415.517 169.828 399.712 169.828C383.908 169.828 370.977 156.897 370.977 141.092H270.402V198.563C270.402 214.368 283.333 227.299 299.138 227.299H500.287C516.092 227.299 529.023 214.368 529.023 198.563V141.092H428.448Z" fill="#90A4AE"/>
<path d="M399.712 83.6208C368.103 83.6208 342.241 109.483 342.241 141.092C342.241 172.701 368.103 198.563 399.712 198.563C431.322 198.563 457.184 172.701 457.184 141.092C457.184 109.483 431.322 83.6208 399.712 83.6208ZM399.712 169.828C383.908 169.828 370.977 156.897 370.977 141.092C370.977 125.288 383.908 112.356 399.712 112.356C415.517 112.356 428.448 125.288 428.448 141.092C428.448 156.897 415.517 169.828 399.712 169.828Z" fill="#90A4AE"/>
<path d="M494.54 350.862L365.23 480.173L304.885 418.391L268.965 454.31L366.666 550.575L530.46 386.782L494.54 350.862Z" fill="#4CAF50"/>
</g>
<defs>
<clipPath id="clip0_298_379">
<rect width="800" height="800" fill="white"/>
</clipPath>
</defs>
</svg>
