<svg width="100" height="100" viewBox="0 0 100 100" fill="none" xmlns="http://www.w3.org/2000/svg">
<path d="M96.9595 0.00744824C87.1602 0.433993 67.6832 1.98656 55.6593 7.63177C54.8296 8.02128 54.3593 8.71391 54.3593 9.43807V59.3438C54.3593 60.928 56.6178 61.9292 58.5222 61.194C70.893 56.4184 88.7839 55.1154 97.6301 54.7588C100.65 54.6368 102.998 52.7797 102.998 50.5537V4.21804C103 1.78906 100.253 -0.135191 96.9595 0.00744824ZM47.3389 7.63177C35.3168 1.98656 15.8398 0.435365 6.04052 0.00744824C2.74667 -0.135191 0 1.78906 0 4.21804V50.5551C0 52.7825 2.3479 54.6395 5.36816 54.7602C14.2179 55.1168 32.1178 56.4211 44.4885 61.1995C46.3876 61.9333 48.6389 60.9334 48.6389 59.3534V9.41338C48.6389 8.68785 48.1704 8.02266 47.3389 7.63177Z" fill="white"/>
</svg>
