<svg width="512" height="512" viewBox="0 0 512 512" fill="none" xmlns="http://www.w3.org/2000/svg">
<g clip-path="url(#clip0_297_310)">
<circle cx="256" cy="256" r="256" fill="#FFD05B"/>
<path d="M399.858 89.1213H111.644V438.035H399.858V89.1213Z" fill="#5D9CEC"/>
<path d="M384.705 104.293H126.82V422.856H384.705V104.293Z" fill="#F5F7FA"/>
<path d="M164.731 119.459C160.554 119.459 157.155 116.065 157.155 111.876V81.538C157.155 77.3489 160.554 73.9554 164.731 73.9554C168.931 73.9554 172.332 77.3489 172.332 81.538V111.876C172.331 116.065 168.932 119.459 164.731 119.459Z" fill="#E6E9ED"/>
<path d="M210.241 119.459C206.063 119.459 202.664 116.065 202.664 111.876V81.538C202.664 77.3489 206.063 73.9554 210.241 73.9554C214.441 73.9554 217.842 77.3489 217.842 81.538V111.876C217.841 116.065 214.442 119.459 210.241 119.459Z" fill="#E6E9ED"/>
<path d="M255.751 119.459C251.574 119.459 248.174 116.065 248.174 111.876V81.538C248.175 77.3489 251.574 73.9554 255.751 73.9554C259.951 73.9554 263.34 77.3489 263.34 81.538V111.876C263.34 116.065 259.951 119.459 255.751 119.459Z" fill="#E6E9ED"/>
<path d="M301.261 119.459C297.083 119.459 293.683 116.065 293.683 111.876V81.538C293.683 77.3489 297.083 73.9554 301.261 73.9554C305.46 73.9554 308.838 77.3489 308.838 81.538V111.876C308.838 116.065 305.46 119.459 301.261 119.459Z" fill="#E6E9ED"/>
<path d="M346.771 119.459C342.594 119.459 339.194 116.065 339.194 111.876V81.538C339.194 77.3489 342.594 73.9554 346.771 73.9554C350.971 73.9554 354.348 77.3489 354.348 81.538V111.876C354.348 116.065 350.971 119.459 346.771 119.459Z" fill="#E6E9ED"/>
<path d="M207.642 176.491C207.642 176.491 207.642 176.491 207.642 176.496L180.832 203.307L170.11 192.591C170.11 192.585 170.11 192.585 170.11 192.579C167.143 189.618 162.332 189.618 159.376 192.579C156.422 195.54 156.422 200.346 159.376 203.307L175.465 219.395C178.432 222.356 183.231 222.356 186.198 219.395L218.375 187.218C221.331 184.252 221.331 179.452 218.375 176.491C215.409 173.53 210.609 173.53 207.642 176.491Z" fill="#A0D468"/>
<path d="M207.642 252.338C207.642 252.338 207.642 252.344 207.642 252.35L180.832 279.149L170.11 268.439C170.11 268.439 170.11 268.439 170.11 268.427C167.143 265.467 162.332 265.467 159.376 268.427C156.422 271.394 156.422 276.194 159.376 279.149L175.465 295.238C178.432 298.204 183.231 298.204 186.198 295.238L218.375 263.067C221.331 260.106 221.331 255.3 218.375 252.339C215.409 249.377 210.609 249.377 207.642 252.338Z" fill="#A0D468"/>
<path d="M207.642 328.192L180.832 355.002L170.11 344.28C167.143 341.313 162.332 341.313 159.376 344.28C156.422 347.235 156.422 352.035 159.376 355.002L175.465 371.09C178.432 374.057 183.231 374.057 186.198 371.09L218.375 338.913C221.331 335.947 221.331 331.147 218.375 328.192C215.409 325.225 210.609 325.225 207.642 328.192Z" fill="#A0D468"/>
<path d="M248.175 206.446H354.349C358.549 206.446 361.95 203.051 361.95 198.862C361.95 194.674 358.55 191.28 354.349 191.28H248.175C243.986 191.28 240.586 194.674 240.586 198.862C240.586 203.051 243.985 206.446 248.175 206.446Z" fill="#434A54"/>
<path d="M354.349 267.128H248.175C243.986 267.128 240.586 270.527 240.586 274.704C240.586 278.904 243.986 282.293 248.175 282.293H354.349C358.549 282.293 361.95 278.904 361.95 274.704C361.948 270.527 358.549 267.128 354.349 267.128Z" fill="#434A54"/>
<path d="M354.349 342.97H248.175C243.986 342.97 240.586 346.369 240.586 350.559C240.586 354.748 243.986 358.148 248.175 358.148H354.349C358.549 358.148 361.95 354.748 361.95 350.559C361.95 346.369 358.549 342.97 354.349 342.97Z" fill="#434A54"/>
</g>
<defs>
<clipPath id="clip0_297_310">
<rect width="511.987" height="511.987" fill="white"/>
</clipPath>
</defs>
</svg>
