<svg width="49" height="61" viewBox="0 0 49 61" fill="none" xmlns="http://www.w3.org/2000/svg">
<path d="M46.3592 60.6012H8.25722C7.3011 60.6012 6.52527 59.8257 6.52527 58.87V9.24199C6.52527 8.28626 7.3011 7.51074 8.25722 7.51074H32.504C32.9629 7.51074 33.4037 7.69334 33.7284 8.01801L47.5837 21.8677C47.9085 22.1922 48.0912 22.6328 48.0912 23.0917V58.87C48.0912 59.8257 47.3153 60.6012 46.3592 60.6012Z" fill="#76CCE0"/>
<path d="M33.7284 8.01801C33.4038 7.69334 32.9629 7.51074 32.504 7.51074H27.3082V60.6012H46.3592C47.3153 60.6012 48.0912 59.8257 48.0912 58.87V23.0917C48.0912 22.6329 47.9085 22.1922 47.5837 21.8677L33.7284 8.01801Z" fill="#42BBD7"/>
<path d="M47.5841 21.8679L33.7285 8.018C33.4037 7.69324 32.963 7.51074 32.5035 7.51074H30.7721L30.7722 23.0917C30.7722 24.0477 31.5476 24.8229 32.5041 24.8229H48.0913V23.0917C48.0913 22.6326 47.9088 22.1924 47.5841 21.8679Z" fill="#76CCE0"/>
<path d="M15.1848 36.3643C16.1414 36.3643 16.9168 35.5892 16.9168 34.633C16.9168 33.6769 16.1414 32.9018 15.1848 32.9018C14.2283 32.9018 13.4529 33.6769 13.4529 34.633C13.4529 35.5892 14.2283 36.3643 15.1848 36.3643Z" fill="white"/>
<path d="M15.1848 43.2894C16.1414 43.2894 16.9168 42.5143 16.9168 41.5581C16.9168 40.602 16.1414 39.8269 15.1848 39.8269C14.2283 39.8269 13.4529 40.602 13.4529 41.5581C13.4529 42.5143 14.2283 43.2894 15.1848 43.2894Z" fill="white"/>
<path d="M15.1848 50.2141C16.1414 50.2141 16.9168 49.439 16.9168 48.4829C16.9168 47.5268 16.1414 46.7516 15.1848 46.7516C14.2283 46.7516 13.4529 47.5268 13.4529 48.4829C13.4529 49.439 14.2283 50.2141 15.1848 50.2141Z" fill="white"/>
<path d="M39.4317 50.2141H22.1126C21.1564 50.2141 20.3806 49.4386 20.3806 48.4829C20.3806 47.5272 21.1564 46.7516 22.1126 46.7516H39.4317C40.3878 46.7516 41.1637 47.5272 41.1637 48.4829C41.1636 49.4387 40.3878 50.2141 39.4317 50.2141Z" fill="white"/>
<path d="M39.4316 46.7517H27.3082V50.2141H39.4316C40.3878 50.2141 41.1636 49.4386 41.1636 48.4829C41.1635 47.5271 40.3878 46.7517 39.4316 46.7517Z" fill="#E6F3FF"/>
<path d="M39.4316 43.2892H22.1124C21.1563 43.2892 20.3805 42.5137 20.3805 41.558C20.3805 40.6022 21.1563 39.8267 22.1124 39.8267H39.4316C40.3877 39.8267 41.1635 40.6022 41.1635 41.558C41.1634 42.5138 40.3877 43.2892 39.4316 43.2892Z" fill="white"/>
<path d="M39.4316 39.8267H27.3082V43.2891H39.4316C40.3878 43.2891 41.1636 42.5136 41.1636 41.5579C41.1635 40.6022 40.3878 39.8267 39.4316 39.8267Z" fill="#E6F3FF"/>
<path d="M39.4316 36.3643H22.1124C21.1563 36.3643 20.3805 35.5888 20.3805 34.633C20.3805 33.6773 21.1563 32.9018 22.1124 32.9018H39.4316C40.3877 32.9018 41.1635 33.6773 41.1635 34.633C41.1634 35.5888 40.3877 36.3643 39.4316 36.3643Z" fill="white"/>
<path d="M39.4316 32.902H27.3082V36.3644H39.4316C40.3878 36.3644 41.1636 35.5889 41.1636 34.6331C41.1635 33.6774 40.3878 32.902 39.4316 32.902Z" fill="#E6F3FF"/>
<path d="M14.1136 24.8136C20.0505 24.8136 24.8634 20.0008 24.8634 14.0639C24.8634 8.12693 20.0505 3.31409 14.1136 3.31409C8.17671 3.31409 3.36389 8.12693 3.36389 14.0639C3.36389 20.0008 8.17665 24.8136 14.1136 24.8136Z" fill="white"/>
<path d="M12.1655 19.0933L20.7106 10.5482C20.853 10.4057 20.9323 10.217 20.9339 10.0168C20.9355 9.81368 20.8573 9.62279 20.7138 9.47927C20.7138 9.47895 20.7138 9.47921 20.7138 9.47921L20.7137 9.47919C20.5738 9.33927 20.3781 9.25961 20.1787 9.26038C19.9767 9.26122 19.7871 9.34007 19.6448 9.48231L11.65 17.4772L9.1931 15.0202C9.0508 14.8779 8.86118 14.799 8.65921 14.7982H8.65622C8.45719 14.7982 8.26343 14.8779 8.12423 15.0172C7.83041 15.311 7.83179 15.7905 8.1273 16.086L10.9703 18.929C11.0044 18.9905 11.0469 19.0468 11.0966 19.0965C11.243 19.2428 11.4353 19.3159 11.6281 19.3158C11.728 19.3159 11.8268 19.2963 11.919 19.2581C12.0112 19.22 12.095 19.1639 12.1655 19.0933ZM14.1136 3.31409C8.17661 3.31409 3.36377 8.12693 3.36377 14.0639C3.36377 20.0008 8.17661 24.8136 14.1136 24.8136C20.0505 24.8136 24.8633 20.0008 24.8633 14.0639C24.8633 8.1269 20.0505 3.31409 14.1136 3.31409ZM14.1136 4.37346C15.4222 4.37346 16.6912 4.62953 17.8852 5.13456C19.039 5.62256 20.0754 6.32142 20.9657 7.21172C21.856 8.10201 22.5548 9.13844 23.0429 10.2923C23.5479 11.4862 23.8039 12.7552 23.8039 14.0639C23.8039 15.3725 23.5479 16.6415 23.0429 17.8355C22.5548 18.9893 21.856 20.0257 20.9657 20.916C20.0754 21.8063 19.039 22.5052 17.8852 22.9932C16.6912 23.4982 15.4222 23.7543 14.1136 23.7543C12.8049 23.7543 11.5359 23.4982 10.3419 22.9932C9.18812 22.5052 8.15169 21.8063 7.2614 20.916C6.37111 20.0257 5.67224 18.9893 5.18421 17.8355C4.67921 16.6415 4.42314 15.3725 4.42314 14.0639C4.42314 12.7552 4.67921 11.4862 5.18421 10.2923C5.67224 9.13844 6.37111 8.10201 7.2614 7.21172C8.15169 6.32142 9.18812 5.62256 10.3419 5.13456C11.5359 4.6295 12.8049 4.37346 14.1136 4.37346Z" fill="#0074FF"/>
</svg>
