<svg width="800" height="800" viewBox="0 0 800 800" fill="none" xmlns="http://www.w3.org/2000/svg">
<g clip-path="url(#clip0_310_1037)">
<path d="M800 400C800 620.914 620.914 800 400 800C179.086 800 0 620.914 0 400C0 179.086 179.086 0 400 0C620.914 0 800 179.086 800 400Z" fill="#C7E4FF"/>
<path d="M592 529.675C592 635 506.473 635 400 635C293.527 635 208 635 208 529.675C208 424.35 294.4 252 400 252C505.6 252 592 423.48 592 529.675Z" fill="#DBB471"/>
<path opacity="0.5" d="M591.812 529.909C591.812 494.163 582.222 450.569 564.784 408.719C568.272 435.747 561.297 483.7 478.469 502.009C360.765 527.294 421.797 560.425 375.587 564.784C336.353 568.272 231.728 552.578 210.803 493.291C209.059 506.369 207.315 518.575 207.315 530.781C208.187 635.406 294.503 635.406 400 635.406C505.497 635.406 591.812 635.406 591.812 529.909Z" fill="#89664C"/>
<path d="M451.441 479.341C447.953 461.903 433.131 456.672 417.438 455.8V431.387C421.797 433.131 427.028 435.747 430.516 438.363C437.491 442.722 444.466 431.387 437.491 427.028C431.388 423.541 424.413 420.053 417.438 417.438V388.666C417.438 379.947 404.359 379.947 404.359 388.666V413.95C397.384 413.078 390.409 413.078 383.434 413.95C382.563 407.847 380.819 401.744 379.075 395.641C377.331 386.922 364.253 390.409 366.869 399.128C368.613 405.231 369.484 411.334 371.228 417.438C370.356 417.438 370.356 417.438 369.484 418.309C352.047 425.284 340.713 442.722 353.791 459.288C359.894 467.134 367.741 469.75 376.459 471.494C377.331 482.828 377.331 494.162 377.331 505.497C371.228 502.009 365.997 496.778 361.638 492.419C355.534 486.316 346.816 495.906 352.047 502.009C359.894 510.728 368.613 516.831 377.331 521.191C377.331 530.781 378.203 540.372 379.075 549.963C379.947 558.681 393.025 558.681 392.153 549.963C391.281 541.244 390.409 533.397 390.409 524.678C395.641 525.55 400.872 525.55 406.103 525.55C406.975 534.269 407.847 542.987 408.719 552.578C409.591 561.297 422.669 561.297 421.797 552.578C420.925 542.987 420.053 533.397 419.181 522.934C438.363 515.959 455.8 501.137 451.441 479.341ZM404.359 427.028V455.8C400 455.8 396.513 456.672 393.025 456.672H388.666L386.05 425.284C392.153 425.284 398.256 426.156 404.359 427.028ZM372.972 454.928C369.484 454.056 365.997 451.441 362.509 448.825C354.663 440.978 365.997 434.003 372.972 430.516C373.844 439.234 374.716 447.081 375.588 455.8C374.716 455.8 373.844 455.8 372.972 454.928ZM401.744 510.728C397.384 511.6 393.897 510.728 390.409 509.856C389.538 496.778 389.538 483.7 389.538 469.75C394.769 469.75 400 468.878 405.231 468.878C405.231 482.828 406.103 495.906 406.103 509.856C404.359 510.728 403.488 510.728 401.744 510.728ZM430.516 501.137C427.028 503.753 422.669 505.497 419.181 507.241C418.309 494.162 418.309 481.956 418.309 468.878H422.669C439.234 472.366 443.594 490.675 430.516 501.137Z" fill="#89664C"/>
<path d="M417.04 600.793H397V635.552L478.03 679L661 622.517V592.103L593.911 553L417.04 600.793Z" fill="#699635"/>
<path d="M400 580.386C400 580.386 420.88 614.371 480.04 644C480.04 644 572.26 639.643 661 580.386C661 580.386 609.67 555.114 594.88 522C594.88 522 560.08 570.8 400 580.386Z" fill="#83BF4F"/>
<path d="M360.261 599.465L379.391 598.591L382 630.929L306.348 679L124.609 639.669L122 610.827L183.739 568L360.261 599.465Z" fill="#699635"/>
<path d="M376 579.335C376 579.335 357.661 613.531 302.644 645.975C302.644 645.975 212.695 648.605 121 600.379C121 600.379 169.904 572.32 181.257 539C181.257 539 219.682 582.842 376 579.335Z" fill="#83BF4F"/>
<path d="M331.433 588.952C331.433 588.952 328.823 595.902 341 596.771L308.819 623.705C308.819 623.705 289.684 621.967 285.335 635C285.335 635 207.056 626.312 156.609 603.722C156.609 603.722 167.047 595.902 154 590.689C154 590.689 168.786 580.263 172.265 570.706C172.265 570.706 186.181 572.444 190.53 562.018C192.27 561.149 244.456 592.427 331.433 588.952Z" stroke="#699635" stroke-width="12.5" stroke-miterlimit="10"/>
<path d="M197.5 602C206.613 602 214 596.851 214 590.5C214 584.149 206.613 579 197.5 579C188.387 579 181 584.149 181 590.5C181 596.851 188.387 602 197.5 602Z" fill="#699635"/>
<path d="M286.656 576.119C286.656 576.119 266.603 602.275 223.009 638.022L225.625 661.563L195.109 654.588L193.365 629.303C193.365 629.303 237.831 588.325 247.421 568.272C246.55 568.272 262.243 573.503 286.656 576.119Z" fill="#F9F3D9"/>
<path d="M488.059 570.016C488.059 570.016 495.905 590.941 555.193 629.303V654.588L589.196 644.125V617.969C589.196 617.969 548.218 589.197 523.805 560.425L488.059 570.016Z" fill="#F9F3D9"/>
<path d="M438.87 542.125L419.739 541.25L418 577.125L495.391 627L677.13 577.125L678 545.625L614.522 501L438.87 542.125Z" fill="#699635"/>
<path d="M423 519.855C423 519.855 442.156 556.681 498.755 590C498.755 590 589.313 590 679 533.884C679 533.884 629.367 504.949 617.177 469C617.177 469 579.735 518.101 423 519.855Z" fill="#83BF4F"/>
<path d="M461.6 529.933C461.6 529.933 465.964 536.867 452 539.467L488.655 568.067C488.655 568.067 509.6 562.867 516.582 575C516.582 575 603.855 559.4 644 538.6C644 538.6 630.909 532.533 644 524.733C644 524.733 628.291 511.733 622.182 503.067C622.182 503.067 607.345 507.4 599.491 497C599.491 497.867 568.073 525.6 461.6 529.933Z" stroke="#699635" stroke-width="12.5" stroke-miterlimit="10"/>
<path d="M529.783 551.537C526.227 555.662 514.668 557.312 504.887 554.837C495.106 552.362 490.66 546.588 494.217 542.463C497.773 538.338 509.332 536.688 519.113 539.163C528.894 541.638 533.34 546.588 529.783 551.537Z" fill="#699635"/>
<path d="M512 513.578C512 513.578 532.945 541.44 577.455 578.879L576.582 605L607.127 596.293L608 568.431C608 568.431 562.618 524.897 551.273 504C552.145 504 537.309 510.095 512 513.578Z" fill="#F9F3D9"/>
<path d="M522 138.444C522 191.65 453.157 278 400 278C346.843 278 278 200.372 278 147.167C278 93.9611 285.843 147.167 339 147.167C346.843 147.167 383.443 121 400 121C411.329 121 443.571 147.167 461 147.167C507.186 147.167 522 98.3222 522 138.444Z" fill="#DBB471"/>
<path d="M384.504 237.716C379.286 241.19 354.065 238.584 346.238 244.664C335.802 252.481 350.586 270.721 340.15 282.012C319.278 302.858 302.754 326.309 307.972 339.337C316.669 361.92 333.192 297.647 347.977 321.966C362.762 346.286 360.153 305.464 382.764 326.309C405.376 347.155 386.243 288.961 407.985 314.149C429.727 339.337 430.597 368 446.251 368C464.514 368 427.118 299.384 451.469 315.886C475.82 332.389 502.78 326.309 478.429 301.121C470.602 293.304 460.166 279.407 447.99 267.247C443.642 262.904 447.121 240.321 442.772 236.847C437.554 232.504 424.509 246.401 419.291 243.796C408.855 238.584 412.334 248.139 396.679 250.744C386.243 254.218 394.94 230.767 384.504 237.716Z" fill="#89664C"/>
<path d="M283.381 288.214C317.467 255.983 379.519 274.276 416.227 289.956C452.06 305.636 473.91 255.983 451.186 230.72C438.076 215.911 417.101 233.334 409.235 243.787C400.495 254.24 393.503 265.565 383.889 276.018C369.906 291.698 335.82 278.632 346.308 256.854C357.67 234.205 405.739 260.338 421.471 264.694C452.06 273.405 484.398 276.889 514.987 265.565C525.475 262.08 521.105 244.658 510.617 249.014C476.532 261.209 442.446 253.369 410.109 242.916C393.503 237.689 367.284 223.751 349.804 231.591C299.987 255.111 346.308 322.187 388.259 296.054C397.873 289.956 403.991 280.374 410.983 271.663C415.353 266.436 437.202 233.334 442.446 249.885C445.068 258.596 442.446 274.276 432.832 276.889C426.715 279.503 414.479 270.792 408.361 269.049C396.999 264.694 385.637 261.209 373.402 258.596C341.064 251.627 297.365 253.369 272.019 276.889C263.28 283.858 275.515 296.054 283.381 288.214Z" fill="#E8E8E8"/>
<path d="M512 125.374C503.24 132.373 487.473 147.245 461.194 147.245C443.674 147.245 411.264 121 399.876 121C383.233 121 346.442 147.245 338.558 147.245C309.651 147.245 293.884 132.373 286 126.249C286 126.249 295.636 165.616 325.419 185.737C347.318 199.734 344.69 183.112 356.078 167.366C367.465 151.619 375.349 143.745 395.496 183.112C406.008 204.983 426.155 123.624 441.922 149.869C470.829 197.984 481.341 171.74 512 125.374Z" fill="#89664C"/>
<path d="M577.862 577.862L576.99 604.019L607.506 595.3L608.378 567.4C608.378 568.272 590.068 575.247 577.862 577.862Z" fill="#DBB471"/>
<path d="M555.193 630.175V655.459L589.196 644.997V618.841C588.325 617.969 579.606 623.2 555.193 630.175Z" fill="#DBB471"/>
<path d="M223.01 637.15L225.625 661.562L195.11 654.587L193.366 629.303C192.494 629.303 204.7 633.662 223.01 637.15Z" fill="#DBB471"/>
</g>
<defs>
<clipPath id="clip0_310_1037">
<rect width="800" height="800" fill="white"/>
</clipPath>
</defs>
</svg>
