<svg width="100" height="100" viewBox="0 0 100 100" fill="none" xmlns="http://www.w3.org/2000/svg">
<path d="M96.0842 3.35897C90.0839 0.925737 84.0791 1.79877e-07 78.0773 1.79877e-07C59.0247 -0.00149536 39.9737 9.32317 20.9212 9.32317C16.1429 9.32317 11.3678 8.73692 6.58958 7.2713C6.05283 7.10679 5.51452 7.02902 4.98859 7.02902C2.32646 7.02902 0 9.02107 0 11.7863V59.2337C0 61.1225 1.11837 62.9127 2.91427 63.6395C8.9145 66.0743 14.9194 67 20.9212 67C39.9737 67 59.0263 57.6753 78.0788 57.6753C82.8571 57.6753 87.6322 58.2616 92.4104 59.7272C92.9472 59.8917 93.4855 59.9695 94.0114 59.9695C96.6735 59.9695 99 57.9774 99 55.2122V7.76632C98.9985 5.87596 97.8801 4.0873 96.0842 3.35897ZM7.42488 14.9883C10.5371 15.742 13.7855 16.1204 17.1267 16.3238C16.2172 20.7192 12.2201 24.0318 7.42488 24.0318V14.9883ZM7.42488 57.611V50.4654C12.7414 50.4654 17.0432 54.5437 17.2799 59.6479C13.7948 59.3773 10.5371 58.7043 7.42488 57.611ZM49.4992 47.8571C42.6637 47.8571 37.1244 41.4278 37.1244 33.5C37.1244 25.5707 42.6652 19.1429 49.4992 19.1429C56.3332 19.1429 61.874 25.5707 61.874 33.5C61.874 41.4308 56.3317 47.8571 49.4992 47.8571ZM91.5736 52.0117C88.8635 51.3552 86.0498 50.9873 83.1711 50.7495C84.0791 46.8492 87.4249 43.888 91.5736 43.3795V52.0117ZM91.5736 16.7006C86.7953 16.1159 83.0875 12.2589 82.9406 7.49563C85.9631 7.82016 88.8326 8.42734 91.5736 9.38897V16.7006Z" fill="white"/>
</svg>
