<svg width="800" height="800" viewBox="0 0 800 800" fill="none" xmlns="http://www.w3.org/2000/svg">
<g clip-path="url(#clip0_307_945)">
<rect width="800" height="800" fill="#F5F5F5"/>
<path d="M800 400C800 620.914 620.914 800 400 800C179.086 800 0 620.914 0 400C0 179.086 179.086 0 400 0C620.914 0 800 179.086 800 400Z" fill="#FBD71D"/>
<path d="M662 185H294V674H581.646L662 593.664V185Z" fill="#E5E5E5"/>
<path d="M294 185V674H573L338.038 185H294Z" fill="#CCCCCC"/>
<path d="M582 674L662 593H582V674Z" fill="#F2F2F2"/>
<path d="M605.271 426C616.688 398.954 623 369.223 623 338.015C623 256.335 579.753 184.771 514.936 145L397 338.014L605.271 426Z" fill="#FFD652"/>
<path d="M420.7 299L397 337.849L605.336 426C610.755 413.141 615.01 399.671 618 385.729L420.7 299Z" fill="#FB9D46"/>
<path d="M350.339 352L467.929 159.184C433.696 138.14 393.434 126 350.339 126C225.887 126 125 227.184 125 352C125 476.816 225.887 578 350.339 578C443.706 578 523.809 521.049 558 439.894L350.339 352Z" fill="#5AC779"/>
<path d="M390.364 538.429C265.662 538.429 164.572 437.34 164.572 312.641C164.572 260.377 182.338 212.266 212.149 174C159.116 215.318 125 279.777 125 352.212C125 476.912 226.09 578 350.792 578C423.225 578 487.684 543.888 529 490.861C490.737 520.668 442.626 538.429 390.364 538.429Z" fill="#00A085"/>
<path d="M662.273 484.31C667.094 484.31 671 480.406 671 475.588V184.866C671 180.048 667.094 176.144 662.273 176.144H569.191C568.411 176.144 567.658 176.255 566.937 176.449C552.845 161.63 536.848 148.618 519.341 137.892C517.365 136.684 514.992 136.307 512.739 136.849C510.488 137.39 508.544 138.804 507.334 140.778L485.692 176.144H468.496L475.684 164.398C478.196 160.291 476.906 154.927 472.8 152.411C436.053 129.899 393.745 118 350.449 118C221.174 118 116 223.117 116 352.323C116 424.563 148.595 491.675 205.426 536.447C209.211 539.43 214.699 538.781 217.681 534.997C220.665 531.215 220.016 525.73 216.231 522.75C163.624 481.305 133.453 419.187 133.453 352.323C133.453 232.735 230.798 135.444 350.449 135.444C387.598 135.444 423.959 144.907 456.155 162.881L343.005 347.772C341.679 349.939 341.363 352.576 342.142 354.994C342.92 357.412 344.714 359.372 347.056 360.359L546.869 444.638C511.136 520.595 434.974 569.201 350.449 569.201C315.516 569.201 282.165 561.161 251.327 545.305C247.041 543.099 241.779 544.788 239.575 549.07C237.37 553.353 239.057 558.612 243.342 560.815C257.08 567.879 271.285 573.483 285.873 577.66V673.278C285.873 678.096 289.78 682 294.6 682H581.99C586.309 682 588.882 678.726 591.664 675.945C598.642 668.971 646.305 621.334 663.159 604.488C666.342 601.307 671 598.011 671 593.039V515.125C671 510.307 667.094 506.403 662.273 506.403C657.452 506.403 653.546 510.307 653.546 515.125V584.317H581.989C577.168 584.317 573.262 588.22 573.262 593.039V664.557H303.327V581.935C318.677 585.057 334.408 586.643 350.45 586.643C408.739 586.643 463.34 565.24 505.259 528.422C505.62 528.467 505.987 528.499 506.362 528.499H576.173C580.994 528.499 584.9 524.595 584.9 519.777C584.9 514.959 580.994 511.055 576.173 511.055H523.03C528.844 504.734 534.328 498.075 539.452 491.093C540.039 491.217 540.645 491.285 541.268 491.285H576.173C580.994 491.285 584.9 487.381 584.9 482.563C584.9 477.745 580.994 473.841 576.173 473.841H550.979C556.819 464.198 562.02 454.055 566.504 443.452C567.404 441.32 567.422 438.919 566.55 436.775C565.679 434.63 563.992 432.923 561.858 432.021L363.184 348.221L457.822 193.588H475.018L389.547 333.252C388.221 335.419 387.905 338.056 388.684 340.474C389.462 342.892 391.257 344.852 393.599 345.839L601.614 433.577C602.722 434.043 603.872 434.266 605.004 434.266C608.406 434.266 611.637 432.264 613.045 428.936C625.252 400.064 631.441 369.403 631.441 337.803C631.441 296.982 620.777 256.787 600.598 221.561C594.995 211.778 588.669 202.442 581.737 193.588H653.548V475.589C653.546 480.406 657.452 484.31 662.273 484.31ZM641.206 601.762L590.716 652.225V601.762H641.206ZM613.986 337.802C613.986 364.118 609.353 389.725 600.2 414.048L409.723 333.706L517.576 157.47C578.115 197.883 613.986 264.658 613.986 337.802Z" fill="black"/>
<path d="M546.24 586H410.76C405.921 586 402 589.804 402 594.5C402 599.196 405.921 603 410.76 603H546.24C551.079 603 555 599.196 555 594.5C554.999 589.804 551.078 586 546.24 586Z" fill="black"/>
<path d="M546.24 623H410.76C405.921 623 402 626.804 402 631.5C402 636.196 405.921 640 410.76 640H546.24C551.079 640 555 636.196 555 631.5C555 626.804 551.078 623 546.24 623Z" fill="black"/>
<path d="M501.5 300C516.663 300 529 287.888 529 273C529 258.112 516.663 246 501.5 246C486.337 246 474 258.112 474 273C474 287.888 486.337 300 501.5 300ZM501.5 263.234C506.985 263.234 511.447 267.615 511.447 273C511.447 278.385 506.985 282.766 501.5 282.766C496.015 282.766 491.553 278.385 491.553 273C491.553 267.615 496.015 263.234 501.5 263.234Z" fill="black"/>
<path d="M564.5 308C549.337 308 537 320.337 537 335.5C537 350.663 549.337 363 564.5 363C579.663 363 592 350.663 592 335.5C592 320.337 579.663 308 564.5 308ZM564.5 345.448C559.015 345.448 554.553 340.986 554.553 335.501C554.553 330.016 559.015 325.554 564.5 325.554C569.985 325.554 574.447 330.016 574.447 335.501C574.447 340.986 569.985 345.448 564.5 345.448Z" fill="black"/>
<path d="M482.551 354.45C484.253 356.151 486.481 357 488.71 357C490.939 357 493.168 356.15 494.869 354.45L585.449 263.868C588.85 260.465 588.85 254.952 585.449 251.55C582.047 248.15 576.533 248.15 573.132 251.55L482.552 342.133C479.15 345.535 479.15 351.049 482.551 354.45Z" fill="black"/>
<path d="M240.268 403.311H247.866C259.146 403.311 268.324 394.14 268.324 382.87V364.181C268.324 352.91 259.146 343.74 247.866 343.74H240.268V319.211H264.232C269.074 319.211 273 315.29 273 310.45C273 305.61 269.074 301.689 264.232 301.689H240.268V291.761C240.268 286.921 236.342 283 231.499 283C226.657 283 222.731 286.921 222.731 291.761V301.689H215.133C203.853 301.689 194.675 310.86 194.675 322.13V340.819C194.675 352.09 203.853 361.26 215.133 361.26H222.731V385.789H198.768C193.926 385.789 190 389.71 190 394.55C190 399.39 193.926 403.311 198.768 403.311H222.732V413.239C222.732 418.079 226.658 422 231.501 422C236.343 422 240.269 418.079 240.269 413.239L240.268 403.311ZM215.134 343.74C213.523 343.74 212.211 342.431 212.211 340.82V322.131C212.211 320.52 213.523 319.211 215.134 319.211H222.732V343.74H215.134ZM240.268 361.261H247.866C249.477 361.261 250.789 362.57 250.789 364.181V382.87C250.789 384.481 249.477 385.79 247.866 385.79H240.268V361.261Z" fill="black"/>
<path d="M310.768 540.311H334.732V550.239C334.732 555.079 338.658 559 343.5 559C348.342 559 352.268 555.079 352.268 550.239V540.311H359.867C371.146 540.311 380.324 531.14 380.324 519.87V501.181C380.324 489.91 371.146 480.74 359.867 480.74H352.268V456.211H376.232C381.074 456.211 385 452.29 385 447.45C385 442.611 381.074 438.689 376.232 438.689H352.268V428.761C352.268 423.921 348.342 420 343.5 420C338.658 420 334.732 423.921 334.732 428.761V438.689H327.133C315.854 438.689 306.676 447.86 306.676 459.13V477.819C306.676 489.09 315.854 498.26 327.133 498.26H334.732V522.789H310.768C305.926 522.789 302 526.71 302 531.55C302.001 536.39 305.927 540.311 310.768 540.311ZM327.135 480.74C325.523 480.74 324.212 479.431 324.212 477.82V459.131C324.212 457.52 325.523 456.211 327.135 456.211H334.733V480.74H327.135ZM352.268 498.261H359.867C361.478 498.261 362.789 499.57 362.789 501.181V519.87C362.789 521.481 361.478 522.79 359.867 522.79H352.268V498.261Z" fill="black"/>
<path d="M310.768 257.789C305.926 257.789 302 261.71 302 266.55C302 271.39 305.926 275.311 310.768 275.311H334.732V285.239C334.732 290.079 338.658 294 343.5 294C348.342 294 352.268 290.079 352.268 285.239V275.311H359.867C371.146 275.311 380.324 266.141 380.324 254.87V236.181C380.324 224.911 371.146 215.741 359.867 215.741H352.268V191.211H376.232C381.074 191.211 385 187.29 385 182.45C385 177.61 381.074 173.689 376.232 173.689H352.268V163.761C352.268 158.921 348.342 155 343.5 155C338.658 155 334.732 158.921 334.732 163.761V173.689H327.133C315.854 173.689 306.676 182.859 306.676 194.13V212.819C306.676 224.089 315.854 233.259 327.133 233.259H334.732V257.788L310.768 257.789ZM327.135 215.74C325.523 215.74 324.212 214.431 324.212 212.82V194.131C324.212 192.52 325.523 191.211 327.135 191.211H334.733V215.74H327.135ZM352.268 233.26H359.867C361.478 233.26 362.789 234.569 362.789 236.18V254.869C362.789 256.48 361.478 257.789 359.867 257.789H352.268V233.26Z" fill="black"/>
</g>
<defs>
<clipPath id="clip0_307_945">
<rect width="800" height="800" fill="white"/>
</clipPath>
</defs>
</svg>
