<svg width="53" height="54" viewBox="0 0 53 54" fill="none" xmlns="http://www.w3.org/2000/svg">
<path d="M41.3481 0.856079H0.856079V51.2631H41.3481V0.856079Z" fill="#F2F2F2"/>
<path d="M42.2041 52.1191H0V0H42.2041V52.1191ZM1.71211 50.407H40.492V1.71211H1.71211V50.407Z" fill="black"/>
<path d="M34.467 17.326H23.6216V23.658H34.467V17.326Z" fill="#FF7C24"/>
<path d="M19.5569 17.7542H7.79871V19.4663H19.5569V17.7542Z" fill="black"/>
<path d="M17.329 21.9427H7.92804V23.6548H17.329V21.9427Z" fill="black"/>
<path d="M17.3869 26.1754H7.98541V27.8869H17.3869V26.1754Z" fill="black"/>
<path d="M24.317 30.5486H7.92804V32.2602H24.317V30.5486Z" fill="black"/>
<path d="M22.1312 34.7383H7.92804V36.4498H22.1312V34.7383Z" fill="black"/>
<path d="M34.4676 7.77948H7.82837V13.2191H34.4676V7.77948Z" fill="#39B6CC"/>
<path d="M23.7998 38.7449H7.92804V40.4564H23.7998V38.7449Z" fill="black"/>
<path d="M27.7436 42.9332H7.92804V44.6453H27.7436V42.9332Z" fill="black"/>
<path d="M20.5067 21.9427H18.5523V23.6548H20.5067V21.9427Z" fill="black"/>
<path fill-rule="evenodd" clip-rule="evenodd" d="M42.4922 39.7009L45.0822 42.3754L41.0683 46.2642L38.4651 43.5715C40.2062 42.7795 41.6301 41.4069 42.4922 39.7009Z" fill="#F2F2F2"/>
<path d="M41.049 47.4747L37.0062 43.2941L38.1105 42.7921C39.6686 42.0828 40.9536 40.848 41.7287 39.3147L42.2706 38.2418L46.2917 42.3946L41.049 47.4747ZM39.8661 43.7889L41.0883 45.0522L43.8703 42.3559L42.6578 41.1029C41.9262 42.1837 40.9717 43.1014 39.8661 43.7889Z" fill="black"/>
<path fill-rule="evenodd" clip-rule="evenodd" d="M45.716 41.7651L50.9822 47.2137L45.7039 52.3132L40.4407 46.8652L45.716 41.7651Z" fill="#39B6CC"/>
<path d="M45.6833 53.5239L39.23 46.844L45.7371 40.555L52.1935 47.2343L45.6833 53.5239ZM41.6507 46.8851L45.725 51.1025L49.7715 47.1926L45.6948 42.9751L41.6507 46.8851Z" fill="black"/>
<path fill-rule="evenodd" clip-rule="evenodd" d="M35.3594 26.9515C40.0366 26.9515 43.8281 30.7431 43.8281 35.4209C43.8281 40.0987 40.0372 43.8902 35.3594 43.8902C30.6816 43.8902 26.89 40.0987 26.89 35.4209C26.89 30.7431 30.6816 26.9515 35.3594 26.9515Z" fill="#F2F2F2"/>
<path d="M35.3593 44.7457C30.2175 44.7457 26.0345 40.5627 26.0345 35.4209C26.0345 30.2791 30.2175 26.0961 35.3593 26.0961C40.5011 26.0961 44.6847 30.2791 44.6847 35.4209C44.6847 40.5627 40.5011 44.7457 35.3593 44.7457ZM35.3593 27.8076C31.1612 27.8076 27.7466 31.2228 27.7466 35.4209C27.7466 39.619 31.1606 43.0336 35.3593 43.0336C39.5568 43.0336 42.9726 39.619 42.9726 35.4209C42.9726 31.2228 39.5568 27.8076 35.3593 27.8076Z" fill="black"/>
<path d="M25.7481 26.1754H19.5177V27.8869H25.7481V26.1754Z" fill="black"/>
<path d="M41.5698 35.885H39.8577C39.8577 35.5008 39.8166 35.1268 39.7338 34.7734C39.7078 34.6611 39.6758 34.5408 39.6317 34.3928L41.2731 33.9047C41.3281 34.0883 41.3686 34.2424 41.403 34.3886C41.513 34.8671 41.5698 35.3709 41.5698 35.885ZM39.1738 33.3761C38.2742 31.8657 36.6346 30.9245 34.8941 30.9227L34.8965 29.2106C37.2351 29.2136 39.4384 30.4738 40.6455 32.5001L39.1738 33.3761Z" fill="black"/>
</svg>
