<svg width="55" height="49" viewBox="0 0 55 49" fill="none" xmlns="http://www.w3.org/2000/svg">
<path d="M48.5743 44.6229H7.18033C3.69224 44.6229 0.837891 41.8001 0.837891 38.3505V6.53909C0.837891 3.0887 3.69224 0.266724 7.18033 0.266724H48.5735C52.0624 0.266724 54.9159 3.08954 54.9159 6.53909V38.3505C54.9168 41.8001 52.0624 44.6229 48.5743 44.6229Z" fill="#E9EDF1"/>
<path d="M54.9159 9.98862V6.44403C54.9159 3.04594 52.0616 0.266724 48.5736 0.266724H7.18023C3.6922 0.265901 0.837891 3.04594 0.837891 6.44403V9.98862H54.9159Z" fill="black"/>
<path d="M7.2179 6.34296C8.05685 6.34296 8.73695 5.66286 8.73695 4.82392C8.73695 3.98497 8.05685 3.30487 7.2179 3.30487C6.37895 3.30487 5.69885 3.98497 5.69885 4.82392C5.69885 5.66286 6.37895 6.34296 7.2179 6.34296Z" fill="#FC6F58"/>
<path d="M11.1674 6.34296C11.8385 6.34296 12.3826 5.66286 12.3826 4.82392C12.3826 3.98497 11.8385 3.30487 11.1674 3.30487C10.4962 3.30487 9.95215 3.98497 9.95215 4.82392C9.95215 5.66286 10.4962 6.34296 11.1674 6.34296Z" fill="#49C3E8"/>
<path d="M15.1169 6.34296C15.9559 6.34296 16.636 5.66286 16.636 4.82392C16.636 3.98497 15.9559 3.30487 15.1169 3.30487C14.278 3.30487 13.5979 3.98497 13.5979 4.82392C13.5979 5.66286 14.278 6.34296 15.1169 6.34296Z" fill="#FFD160"/>
<path d="M49.1949 4.58099H46.0076V5.29645H49.1949V4.58099Z" fill="white"/>
<path d="M48.2604 7.08902L47.7203 6.61932L49.152 4.97536L47.7203 3.33225L48.2604 2.86255L50.1023 4.97536L48.2604 7.08902Z" fill="white"/>
<path d="M40.752 7.21553H22.8312C21.5991 7.21553 20.5909 6.20736 20.5909 4.97523C20.5909 3.7431 21.5991 2.73492 22.8312 2.73492H40.752C41.9841 2.73492 42.9923 3.7431 42.9923 4.97523C42.9923 6.20736 41.9841 7.21553 40.752 7.21553Z" fill="white"/>
<path d="M23.1873 6.34295L22.7122 3.91248H23.0903L23.2745 5.01604C23.323 5.31215 23.3691 5.6224 23.4014 5.86292H23.407C23.4394 5.60724 23.4935 5.31922 23.5484 5.012L23.7585 3.91248H24.1302L24.3241 5.0312C24.3726 5.31922 24.413 5.59006 24.4413 5.85281H24.4477C24.4817 5.58501 24.5285 5.30911 24.5795 5.012L24.7815 3.91248H25.1426L24.6199 6.34295H24.2401L24.0381 5.19896C23.988 4.92307 23.9549 4.69164 23.9314 4.42788H23.925C23.891 4.6876 23.8539 4.92307 23.7957 5.19896L23.5711 6.34295H23.1873Z" fill="black"/>
<path d="M25.7365 6.34295L25.1426 3.91248H25.6153L25.8455 5.01604C25.9061 5.31215 25.9637 5.6224 26.0041 5.86292H26.0112C26.0516 5.60724 26.1193 5.31922 26.1879 5.012L26.4505 3.91248H26.9151L27.1575 5.0312C27.2181 5.31922 27.2686 5.59006 27.304 5.85281H27.3121C27.3545 5.58501 27.4131 5.30911 27.4767 5.012L27.7292 3.91248H28.1807L27.5272 6.34295H27.0525L26.8 5.19896C26.7374 4.92307 26.696 4.69164 26.6667 4.42788H26.6586C26.6162 4.6876 26.5697 4.92307 26.497 5.19896L26.2162 6.34295H25.7365Z" fill="black"/>
<path d="M28.6558 6.34295L28.1807 3.91248H28.5588L28.743 5.01604C28.7915 5.31215 28.8376 5.6224 28.8699 5.86292H28.8755C28.9079 5.60724 28.962 5.31922 29.0169 5.012L29.227 3.91248H29.5987L29.7926 5.0312C29.8411 5.31922 29.8815 5.59006 29.9098 5.85281H29.9163C29.9502 5.58501 29.9971 5.30911 30.048 5.012L30.25 3.91248H30.6111L30.0884 6.34295H29.7086L29.5066 5.19896C29.4565 4.92307 29.4234 4.69164 29.3999 4.42788H29.3935C29.3595 4.6876 29.3224 4.92307 29.2642 5.19896L29.0396 6.34295H28.6558Z" fill="black"/>
<path d="M30.6112 6.03862C30.6112 5.86333 30.7397 5.73535 30.915 5.73535C31.0937 5.73535 31.2188 5.85903 31.2188 6.03862C31.2188 6.21284 31.0982 6.34297 30.915 6.34297C30.7363 6.34297 30.6112 6.21177 30.6112 6.03862Z" fill="black"/>
<path d="M23.2284 45.7461L18.4344 41.0433H30.0036V36.6578H18.4336L23.2284 31.955L20.1741 28.8248L9.95215 38.8501L20.1741 48.8762L23.2284 45.7461Z" fill="#FFD160"/>
<path d="M32.1236 17.3714L37.0627 22.0744H25.1426V26.4609H37.0627L32.1236 31.163L35.2695 34.2934L45.8016 24.2677L35.2695 14.2419L32.1236 17.3714Z" fill="#FC6F58"/>
</svg>
