<svg width="100" height="100" viewBox="0 0 100 100" fill="none" xmlns="http://www.w3.org/2000/svg">
<g clip-path="url(#clip0_190_2767)">
<path d="M36.5 41.0625C47.835 41.0625 57.0312 31.8662 57.0312 20.5312C57.0312 9.19629 47.835 0 36.5 0C25.165 0 15.9688 9.19629 15.9688 20.5312C15.9688 31.8662 25.165 41.0625 36.5 41.0625ZM54.75 45.625H46.8939C43.7287 47.0793 40.207 47.9062 36.5 47.9062C32.793 47.9062 29.2855 47.0793 26.1061 45.625H18.25C8.16973 45.625 0 53.7947 0 63.875V66.1562C0 69.9346 3.06543 73 6.84375 73H66.1562C69.9346 73 73 69.9346 73 66.1562V63.875C73 53.7947 64.8303 45.625 54.75 45.625Z" fill="white"/>
</g>
<defs>
<clipPath id="clip0_190_2767">
<rect width="73" height="73" fill="white"/>
</clipPath>
</defs>
</svg>
